<svg width="26" height="24" viewBox="0 0 26 24" fill="none" xmlns="http://www.w3.org/2000/svg">
<path fill-rule="evenodd" clip-rule="evenodd" d="M0.408447 1.80937C0.470333 1.65404 0.516744 1.49017 0.596948 1.34486C0.893131 0.808065 1.35381 0.518814 1.96796 0.506808C2.61194 0.494307 3.25629 0.502847 3.90051 0.502847C8.99009 0.502724 14.0797 0.502476 19.1691 0.503219C20.0184 0.503342 20.6338 0.949289 20.8195 1.70602C20.8574 1.86024 20.8664 2.02473 20.8665 2.18452C20.8694 4.51995 20.869 6.85526 20.8681 9.19069C20.868 9.58552 20.7074 9.79172 20.4045 9.79704C20.154 9.8015 19.9551 9.62921 19.9293 9.37857C19.9203 9.29082 19.9239 9.20158 19.9239 9.11296C19.9236 6.83397 19.9239 4.55486 19.9236 2.27586C19.9235 1.67174 19.7132 1.45898 19.1155 1.45885C17.4728 1.45848 15.8299 1.45873 14.1872 1.45873C14.1012 1.45873 14.0152 1.45873 13.9024 1.45873C13.9024 1.58324 13.9024 1.6778 13.9024 1.77236C13.9024 3.41517 13.8776 5.0586 13.9133 6.70067C13.9304 7.48686 13.2109 7.86015 12.6006 7.45938C12.0298 7.08473 11.4205 6.76936 10.8343 6.41736C10.6912 6.33146 10.5857 6.33579 10.4442 6.4207C9.85092 6.77629 9.25113 7.12124 8.65133 7.46582C7.97876 7.85211 7.3713 7.49949 7.37068 6.72332C7.36956 5.06442 7.3703 3.40552 7.3703 1.7465C7.3703 1.65998 7.3703 1.57334 7.3703 1.47197C7.26968 1.4669 7.1917 1.45947 7.1136 1.45947C5.4547 1.45885 3.79568 1.45848 2.13678 1.45922C1.57424 1.45947 1.36383 1.66902 1.36383 2.23131C1.36334 7.90063 1.36334 13.5701 1.36383 19.2394C1.36383 19.7834 1.58786 20.0178 2.11438 20.018C5.61746 20.0193 9.12055 20.0188 12.6236 20.0183C12.6865 20.0183 12.7494 20.012 12.8358 20.0075C12.8137 19.9346 12.8006 19.8746 12.7779 19.8184C11.2531 16.0342 13.4575 11.8989 17.4486 11.0574C20.9579 10.3175 24.4978 12.7555 25.0579 16.2977C25.6277 19.9022 23.2396 23.2206 19.6298 23.722C17.1374 24.0684 15.0986 23.166 13.551 21.1796C13.4296 21.0237 13.3156 20.9568 13.1157 20.9572C9.516 20.9635 5.91612 20.9458 2.31662 20.9721C1.32274 20.9794 0.652771 20.5785 0.408447 19.6409C0.408447 13.6972 0.408447 7.75322 0.408447 1.80937ZM13.2364 17.3776C13.2502 20.4092 15.7139 22.8571 18.7359 22.842C21.7712 22.827 24.2106 20.3684 24.1937 17.3415C24.1768 14.3173 21.7262 11.8792 18.7118 11.8873C15.6821 11.8953 13.2227 14.3616 13.2364 17.3776ZM8.34141 6.53878C8.43164 6.48939 8.50083 6.4535 8.56816 6.41439C9.14567 6.07983 9.72678 5.75135 10.2982 5.4064C10.5322 5.2653 10.7391 5.25961 10.9733 5.39984C11.546 5.74256 12.1258 6.07327 12.7032 6.40795C12.7759 6.45003 12.8516 6.48667 12.9447 6.53568C12.9447 4.82938 12.9447 3.15897 12.9447 1.47989C11.4007 1.47989 9.87048 1.47989 8.34154 1.47989C8.34141 3.17073 8.34141 4.84077 8.34141 6.53878Z" fill="white"/>
<path fill-rule="evenodd" clip-rule="evenodd" d="M4.80835 18.632C4.32577 18.632 3.84306 18.6349 3.36061 18.6311C3.04066 18.6285 2.83136 18.4396 2.82864 18.1633C2.82604 17.8897 3.03175 17.6869 3.35281 17.6846C4.33406 17.6775 5.31532 17.6773 6.29657 17.6846C6.61751 17.6869 6.82161 17.8917 6.81666 18.1672C6.81183 18.4412 6.60006 18.6287 6.28011 18.6312C5.78961 18.6346 5.29898 18.632 4.80835 18.632Z" fill="white"/>
<path fill-rule="evenodd" clip-rule="evenodd" d="M4.34294 16.5904C4.02151 16.5904 3.7002 16.5933 3.37877 16.5897C3.04879 16.5859 2.82836 16.3907 2.8291 16.1108C2.82997 15.8301 3.04904 15.6364 3.38075 15.6348C4.03946 15.6317 4.69841 15.6312 5.35712 15.635C5.67682 15.6369 5.88575 15.8247 5.89194 16.1007C5.8985 16.3872 5.68586 16.5849 5.35527 16.5893C5.01787 16.5939 4.68047 16.5904 4.34294 16.5904Z" fill="white"/>
<path fill-rule="evenodd" clip-rule="evenodd" d="M18.0413 17.3602C17.6209 16.9402 17.212 16.5319 16.8033 16.1235C16.5925 15.9129 16.3817 15.7025 16.1716 15.4914C15.8818 15.2003 15.8438 14.9369 16.0588 14.7161C16.28 14.4888 16.5493 14.5253 16.8512 14.8273C17.466 15.4419 18.0795 16.0575 18.7097 16.689C18.7803 16.6226 18.8448 16.5655 18.9057 16.5047C19.481 15.9301 20.0566 15.3557 20.6303 14.7794C20.7736 14.6354 20.9302 14.5314 21.1441 14.5828C21.5269 14.6749 21.6325 15.1154 21.3358 15.4176C20.8057 15.9576 20.2675 16.49 19.7315 17.0241C19.6238 17.1316 19.5104 17.2334 19.3322 17.4013C19.4654 17.4993 19.5869 17.5682 19.683 17.6628C20.2164 18.1882 20.7444 18.7191 21.273 19.2494C21.5615 19.5388 21.593 19.8052 21.3683 20.0247C21.1453 20.2428 20.8869 20.2065 20.5928 19.9131C20.0286 19.35 19.4657 18.7859 18.9017 18.2225C18.8456 18.1664 18.7865 18.1133 18.6955 18.0274C18.44 18.2945 18.1944 18.5578 17.9415 18.8139C17.5512 19.2093 17.1589 19.6027 16.7618 19.9911C16.531 20.2172 16.2552 20.2203 16.0565 20.0132C15.8673 19.8163 15.8725 19.5449 16.0899 19.3245C16.6722 18.7342 17.2614 18.1505 17.8473 17.5637C17.9086 17.5023 17.967 17.438 18.0413 17.3602Z" fill="white"/>
</svg>
