<svg width="25" height="19" viewBox="0 0 25 19" fill="none" xmlns="http://www.w3.org/2000/svg">
<path fill-rule="evenodd" clip-rule="evenodd" d="M24.917 2.66993C24.639 3.1817 24.372 3.69996 24.0813 4.20458C22.3053 7.28894 20.5226 10.3694 18.7492 13.4552C18.6716 13.5902 18.6267 13.7634 18.6247 13.9194C18.6138 14.9146 18.6213 15.9101 18.6185 16.9054C18.6157 17.8733 18.0019 18.4975 17.0371 18.498C12.0996 18.5009 7.16217 18.5003 2.22459 18.4984C1.42219 18.4981 0.910814 18.1082 0.672016 17.3347C0.66552 17.3139 0.646553 17.2969 0.633301 17.278C0.633301 12.0926 0.633301 6.90697 0.633301 1.72137C1.05659 0.717977 1.39127 0.500098 2.50834 0.500098C7.33574 0.500098 12.1633 0.499707 16.9907 0.500487C18.0063 0.500617 18.6173 1.10813 18.6187 2.11867C18.6206 3.2642 18.6193 4.40998 18.6193 5.55564C18.6193 5.63645 18.6193 5.7174 18.6193 5.79821C18.712 5.73091 18.7578 5.65945 18.8004 5.58578C19.6453 4.12312 20.4892 2.66019 21.3345 1.19791C21.7352 0.504646 22.4342 0.310021 23.1352 0.698229C23.4183 0.855046 23.6891 1.03525 23.9775 1.18037C24.4363 1.41124 24.779 1.73384 24.9169 2.24314C24.917 2.38553 24.917 2.5278 24.917 2.66993ZM9.63355 6.12106C9.55534 6.17654 9.49077 6.2215 9.42711 6.26762C8.83856 6.69376 8.25598 7.129 7.656 7.53826C7.54687 7.61271 7.34029 7.63752 7.22661 7.58399C7.12436 7.53592 7.07824 7.35221 7.02627 7.22086C7.00184 7.15928 7.02172 7.08028 7.02172 7.00909C7.02172 5.19147 7.02172 3.37385 7.02172 1.55624C7.02172 1.46464 7.02172 1.37304 7.02172 1.2591C6.89998 1.2591 6.81475 1.2591 6.72953 1.2591C5.25166 1.2591 3.77392 1.25884 2.29605 1.2591C1.6554 1.25923 1.39218 1.52402 1.39218 2.16713C1.39205 7.04313 1.39932 11.9192 1.38399 16.7952C1.38191 17.4875 1.77974 17.7489 2.33061 17.7474C7.19075 17.7355 12.0509 17.7406 16.9113 17.7406C16.9744 17.7406 17.0377 17.7422 17.1009 17.7399C17.5588 17.7237 17.8554 17.4308 17.8589 16.9745C17.8644 16.2792 17.8606 15.5837 17.8597 14.8882C17.8597 14.852 17.8505 14.8157 17.8431 14.7608C17.756 14.7986 17.6842 14.8273 17.6144 14.8606C17.0234 15.1425 16.4334 15.4268 15.8416 15.7075C15.2905 15.9691 14.9293 15.767 14.8777 15.1591C14.8169 14.4429 14.7568 13.7261 14.724 13.0081C14.7153 12.8164 14.7652 12.596 14.8601 12.4296C15.8159 10.7484 16.7889 9.07641 17.7497 7.39782C17.8162 7.28179 17.856 7.13316 17.8566 6.99947C17.8638 5.37154 17.8619 3.74348 17.8608 2.11555C17.8604 1.53636 17.5823 1.25949 17.0022 1.25923C15.5007 1.25832 13.9993 1.25871 12.4977 1.25936C12.4208 1.25936 12.3439 1.26586 12.2427 1.27041C12.2427 1.38084 12.2427 1.47387 12.2427 1.56689C12.2427 3.41608 12.242 5.26552 12.2437 7.11458C12.2438 7.31232 12.2272 7.49747 12.0283 7.60335C11.8229 7.71249 11.6676 7.6001 11.5105 7.48538C10.892 7.03403 10.2719 6.58463 9.63355 6.12106ZM11.4727 1.27482C10.2303 1.27482 9.01694 1.27482 7.79398 1.27482C7.79398 3.01644 7.79398 4.7422 7.79398 6.49914C7.88168 6.4421 7.94703 6.403 8.00848 6.35856C8.45035 6.0396 8.89572 5.72493 9.33122 5.3974C9.54157 5.23915 9.72671 5.24591 9.93316 5.39961C10.3831 5.73442 10.8394 6.06065 11.2942 6.38883C11.3457 6.42599 11.4043 6.45354 11.4729 6.49316C11.4727 4.73531 11.4727 3.01436 11.4727 1.27482ZM17.6447 13.8389C19.5074 10.6135 21.3579 7.40925 23.2186 4.18691C22.9808 4.04945 22.7586 3.92109 22.5217 3.78415C20.6593 7.00947 18.8091 10.2138 16.9482 13.4365C17.1806 13.5708 17.3975 13.6962 17.6447 13.8389ZM21.1681 3.0028C19.3069 6.22669 17.4548 9.43539 15.5956 12.6558C15.838 12.7957 16.0547 12.9207 16.2918 13.0574C18.1523 9.83451 20.0046 6.62607 21.8642 3.40516C21.6211 3.26459 21.4047 3.1396 21.1681 3.0028ZM21.5472 2.34578C22.2407 2.74555 22.9144 3.13376 23.5971 3.52742C23.7608 3.24549 23.9132 2.98772 24.0608 2.72723C24.217 2.45179 24.1737 2.19585 23.908 2.02928C23.5137 1.78217 23.1092 1.54922 22.698 1.33095C22.4148 1.1805 22.1768 1.26469 22.0148 1.53805C21.8623 1.79581 21.7144 2.0567 21.5472 2.34578ZM15.6264 14.9694C16.0767 14.7543 16.5059 14.5493 16.9712 14.327C16.4762 14.0413 16.0173 13.7765 15.5123 13.4849C15.552 14.0026 15.588 14.4696 15.6264 14.9694Z" fill="white"/>
<path fill-rule="evenodd" clip-rule="evenodd" d="M5.42829 16.1398C4.97797 16.1398 4.52753 16.1419 4.07735 16.139C3.79919 16.1372 3.62704 15.9901 3.62574 15.7624C3.62444 15.5351 3.79789 15.3827 4.07397 15.3819C4.99058 15.3795 5.90692 15.3795 6.82339 15.3819C7.10519 15.3826 7.27176 15.5275 7.27279 15.759C7.2737 15.9912 7.10688 16.1372 6.82664 16.139C6.36061 16.1419 5.89445 16.1398 5.42829 16.1398Z" fill="white"/>
<path fill-rule="evenodd" clip-rule="evenodd" d="M5.44739 14.1952C4.98916 14.1952 4.53092 14.1973 4.07268 14.1945C3.79699 14.1926 3.6238 14.0414 3.62575 13.8135C3.6277 13.5864 3.80023 13.4379 4.07866 13.4373C4.99513 13.4349 5.91148 13.4347 6.82795 13.4375C7.10702 13.4383 7.27475 13.5882 7.2728 13.8195C7.27085 14.0515 7.10481 14.1929 6.82197 14.1945C6.36374 14.1971 5.9055 14.1952 5.44739 14.1952Z" fill="white"/>
</svg>
