<svg width="500" height="500" viewBox="0 0 500 500" fill="none" xmlns="http://www.w3.org/2000/svg">
<path d="M431.67 117.792C436.28 115.858 439.559 111.104 439.585 105.503C439.615 98.165 434.063 92.19 427.181 92.159C420.303 92.127 414.7 98.05 414.669 105.388C414.647 111.041 417.947 115.852 422.607 117.792C403.436 120.68 404.305 141.517 404.305 141.517L449.64 141.726C449.64 141.726 450.675 120.662 431.67 117.792Z" fill="#F5F5F5"/>
<path d="M163.819 39.92L134.193 29.443L104.855 39.778C101.109 41.52 97.824 42.563 97.824 45.999V63.106C97.824 74.986 100.985 86.759 107.489 97.152C112.962 105.899 121.436 114.904 134.481 120.628C146.473 116.792 155.425 106.566 160.898 97.82C167.401 87.426 170.563 75.654 170.563 63.774V48.391C170.562 43.491 167.925 41.099 163.819 39.92Z" fill="#F5F5F5"/>
<path d="M144.033 67.537C144.033 63.007 140.36 59.334 135.83 59.334C131.3 59.334 127.627 63.006 127.627 67.537C127.627 71.286 130.157 74.413 133.592 75.392V87.656H138.068V75.392C141.502 74.413 144.033 71.286 144.033 67.537Z" fill="#EBEBEB"/>
<path d="M415.74 198.494L420.793 201.229L418.522 205.03L413.423 202.017L413.516 207.626H409.159L409.205 201.97L404.106 205.03L401.88 201.229L406.933 198.494L401.88 195.713L404.106 191.912L409.205 194.972L409.159 189.316H413.516L413.423 194.972L418.522 191.912L420.793 195.713L415.74 198.494Z" fill="#E0E0E0"/>
<path d="M436.782 198.494L441.835 201.229L439.564 205.03L434.465 202.017L434.558 207.626H430.2L430.246 201.97L425.147 205.03L422.921 201.229L427.974 198.494L422.921 195.713L425.147 191.912L430.246 194.972L430.2 189.316H434.557L434.464 194.972L439.563 191.912L441.834 195.713L436.782 198.494Z" fill="#E0E0E0"/>
<path d="M457.825 198.494L462.878 201.229L460.607 205.03L455.508 202.017L455.601 207.626H451.244L451.29 201.97L446.191 205.03L443.965 201.229L449.018 198.494L443.965 195.713L446.191 191.912L451.29 194.972L451.244 189.316H455.601L455.508 194.972L460.607 191.912L462.878 195.713L457.825 198.494Z" fill="#E0E0E0"/>
<path d="M243.735 437.855V468.917H289.16H339.261V437.855H243.735Z" fill="#F5F5F5"/>
<path d="M239.727 429.17V437.855H342.601V429.17H289.16H239.727Z" fill="#EBEBEB"/>
<path d="M291.164 468.917H339.261V437.855H342.601V429.17H289.16V437.051L291.164 468.917Z" fill="#EBEBEB"/>
<path d="M276.467 442.865H257.095V447.541H276.467V442.865Z" fill="#E0E0E0"/>
<path d="M279.477 453.385H254.602V463.259H279.477V453.385Z" fill="white"/>
<path d="M258.431 398.149V429.212H303.856H353.958V398.149H258.431Z" fill="#F5F5F5"/>
<path d="M254.423 389.465V398.149H357.298V389.465H303.856H254.423Z" fill="#EBEBEB"/>
<path d="M305.861 429.212H353.958V398.149H357.298V389.465H303.856V397.346L305.861 429.212Z" fill="#EBEBEB"/>
<path d="M291.165 403.159H271.792V407.835H291.165V403.159Z" fill="#E0E0E0"/>
<path d="M294.174 413.68H269.298V423.553H294.174V413.68Z" fill="white"/>
<path d="M464.069 469.157C464.069 469.301 368.219 469.417 250.01 469.417C131.76 469.417 35.93 469.301 35.93 469.157C35.93 469.012 131.759 468.896 250.01 468.896C368.219 468.896 464.069 469.012 464.069 469.157Z" fill="#263238"/>
<path d="M375.707 225.757H197.072C193.448 225.757 190.511 222.819 190.511 219.196V54.848C190.511 51.225 193.448 48.288 197.072 48.288H375.707C379.331 48.288 382.268 51.225 382.268 54.848V219.196C382.267 222.819 379.331 225.757 375.707 225.757Z" fill="white"/>
<path d="M375.707 225.757C375.707 225.757 375.866 225.74 376.179 225.719C376.492 225.698 376.958 225.633 377.552 225.462C378.139 225.277 378.859 224.976 379.591 224.426C380.318 223.879 381.07 223.086 381.577 221.992C382.144 220.91 382.26 219.545 382.203 218.052C382.199 216.557 382.195 214.923 382.19 213.152C382.183 209.61 382.175 205.524 382.167 200.925C382.147 182.52 382.119 155.898 382.084 123.004C382.074 106.554 382.063 88.537 382.052 69.195C382.043 64.364 382.034 59.45 382.026 54.458C381.91 52.036 380.239 49.756 377.921 48.92C376.774 48.442 375.518 48.519 374.231 48.516C372.953 48.517 371.669 48.517 370.381 48.518C360.077 48.521 349.474 48.525 338.6 48.529C295.104 48.535 247.284 48.542 197.091 48.55C195.58 48.551 194.087 49.104 192.952 50.093C191.808 51.07 191.043 52.472 190.845 53.957C190.741 54.687 190.782 55.475 190.774 56.254V58.588C190.774 60.143 190.774 61.694 190.774 63.244C190.774 69.442 190.774 75.599 190.773 81.712C190.772 93.937 190.771 105.982 190.769 117.818C190.764 141.489 190.759 164.323 190.754 186.074C190.75 196.949 190.747 207.554 190.743 217.859C190.749 218.499 190.726 219.158 190.771 219.766C190.839 220.38 190.964 220.992 191.203 221.562C191.664 222.708 192.467 223.703 193.473 224.404C194.482 225.101 195.686 225.497 196.904 225.524C198.161 225.527 199.413 225.531 200.661 225.535C205.659 225.537 210.578 225.539 215.413 225.541C234.756 225.553 252.774 225.563 269.224 225.573C302.119 225.608 328.738 225.636 347.141 225.656C356.335 225.677 363.475 225.694 368.325 225.705C370.742 225.716 372.587 225.725 373.834 225.731C375.071 225.739 375.707 225.757 375.707 225.757C375.707 225.757 375.071 225.775 373.83 225.783C372.583 225.789 370.738 225.798 368.321 225.809C363.471 225.82 356.332 225.837 347.137 225.858C328.734 225.878 302.115 225.906 269.22 225.941C252.771 225.951 234.753 225.962 215.409 225.973C210.573 225.975 205.654 225.977 200.657 225.98C199.406 225.978 198.149 225.975 196.888 225.973C195.585 225.945 194.292 225.521 193.212 224.776C192.134 224.026 191.273 222.961 190.778 221.733C190.523 221.121 190.386 220.465 190.314 219.807C190.265 219.134 190.289 218.507 190.283 217.859C190.28 207.554 190.276 196.949 190.272 186.074C190.267 164.323 190.262 141.489 190.257 117.818C190.256 105.982 190.255 93.936 190.253 81.712C190.253 75.6 190.253 69.442 190.252 63.244C190.252 61.694 190.252 60.142 190.252 58.588V56.254C190.262 55.479 190.216 54.7 190.328 53.884C190.544 52.276 191.372 50.757 192.61 49.7C193.836 48.63 195.459 48.03 197.09 48.03C247.283 48.037 295.103 48.044 338.599 48.051C349.473 48.055 360.077 48.058 370.38 48.062C371.668 48.062 372.951 48.063 374.23 48.063C375.481 48.067 376.845 47.985 378.079 48.499C380.562 49.397 382.349 51.839 382.471 54.433C382.476 59.435 382.481 64.358 382.485 69.198C382.474 88.54 382.464 106.557 382.454 123.007C382.419 155.901 382.391 182.523 382.371 200.928C382.362 205.527 382.354 209.613 382.348 213.155C382.343 214.926 382.339 216.56 382.335 218.055C382.385 219.536 382.259 220.954 381.675 222.041C381.152 223.149 380.381 223.947 379.641 224.493C378.895 225.043 378.163 225.339 377.569 225.516C376.968 225.681 376.497 225.737 376.183 225.749C375.866 225.758 375.707 225.757 375.707 225.757Z" fill="#263238"/>
<path d="M201.667 63.902C203.498 63.902 204.982 62.4178 204.982 60.587C204.982 58.7562 203.498 57.272 201.667 57.272C199.836 57.272 198.352 58.7562 198.352 60.587C198.352 62.4178 199.836 63.902 201.667 63.902Z" fill="#263238"/>
<path d="M211.35 63.902C213.181 63.902 214.665 62.4178 214.665 60.587C214.665 58.7562 213.181 57.272 211.35 57.272C209.519 57.272 208.035 58.7562 208.035 60.587C208.035 62.4178 209.519 63.902 211.35 63.902Z" fill="#263238"/>
<path d="M221.032 63.902C222.863 63.902 224.347 62.4178 224.347 60.587C224.347 58.7562 222.863 57.272 221.032 57.272C219.201 57.272 217.717 58.7562 217.717 60.587C217.717 62.4178 219.201 63.902 221.032 63.902Z" fill="#263238"/>
<path d="M382.267 69.992C382.267 70.136 339.338 70.252 286.394 70.252C233.432 70.252 190.511 70.135 190.511 69.992C190.511 69.848 233.431 69.732 286.394 69.732C339.338 69.731 382.267 69.848 382.267 69.992Z" fill="#263238"/>
<path d="M313.476 136.845C313.476 136.845 313.552 136.739 313.705 136.536C313.744 136.485 313.787 136.429 313.834 136.367C313.878 136.302 313.917 136.224 313.965 136.143C314.058 135.979 314.173 135.794 314.256 135.56C314.302 135.445 314.356 135.326 314.402 135.196C314.439 135.063 314.477 134.923 314.518 134.776C314.565 134.63 314.59 134.472 314.615 134.307C314.636 134.142 314.681 133.973 314.687 133.791C314.764 133.071 314.716 132.231 314.573 131.304C314.286 129.444 313.497 127.252 312.289 124.871C311.083 122.484 309.423 119.917 307.383 117.242C305.342 114.565 302.888 111.801 300.068 109.025C297.244 106.252 294.047 103.467 290.464 100.827C288.671 99.509 286.78 98.231 284.787 97.027C282.795 95.82 280.695 94.696 278.48 93.721C276.265 92.758 273.928 91.919 271.463 91.521C270.234 91.332 268.968 91.24 267.722 91.429C267.1 91.525 266.49 91.694 265.914 91.952C265.348 92.228 264.827 92.596 264.396 93.061C263.983 93.541 263.674 94.1 263.463 94.693C263.273 95.294 263.171 95.92 263.148 96.549C263.1 97.809 263.336 99.058 263.664 100.257C264.339 102.661 265.438 104.888 266.647 106.98C267.868 109.07 269.225 111.029 270.65 112.871C272.074 114.715 273.558 116.449 275.072 118.08C278.103 121.34 281.234 124.2 284.31 126.69C287.389 129.177 290.415 131.3 293.307 133.023C296.198 134.745 298.937 136.103 301.445 137.029C303.949 137.958 306.216 138.492 308.096 138.566C309.034 138.604 309.873 138.555 310.579 138.396C310.759 138.37 310.922 138.306 311.084 138.266C311.245 138.223 311.398 138.18 311.538 138.117C311.68 138.06 311.814 138.006 311.942 137.954C312.066 137.893 312.178 137.826 312.288 137.768C312.512 137.659 312.683 137.523 312.834 137.412C312.909 137.356 312.981 137.308 313.042 137.257C313.099 137.203 313.149 137.153 313.195 137.11C313.379 136.933 313.476 136.845 313.476 136.845C313.476 136.845 313.387 136.939 313.206 137.119C313.16 137.164 313.109 137.214 313.054 137.27C312.994 137.322 312.922 137.371 312.848 137.428C312.697 137.542 312.527 137.68 312.303 137.792C312.194 137.852 312.081 137.92 311.957 137.982C311.828 138.035 311.693 138.09 311.551 138.149C311.411 138.214 311.257 138.258 311.096 138.303C310.933 138.344 310.769 138.409 310.589 138.437C309.879 138.602 309.035 138.655 308.093 138.622C306.203 138.557 303.928 138.029 301.416 137.105C298.899 136.184 296.151 134.831 293.253 133.111C290.354 131.391 287.319 129.27 284.232 126.784C281.149 124.295 278.009 121.435 274.971 118.172C273.453 116.539 271.965 114.803 270.537 112.956C269.107 111.111 267.746 109.148 266.52 107.053C265.306 104.954 264.201 102.72 263.52 100.296C263.19 99.087 262.951 97.826 262.999 96.543C263.023 95.903 263.126 95.263 263.322 94.646C263.539 94.036 263.856 93.459 264.284 92.962C264.729 92.481 265.267 92.101 265.849 91.817C266.44 91.551 267.064 91.379 267.697 91.281C268.966 91.089 270.245 91.183 271.483 91.374C273.967 91.775 276.313 92.619 278.536 93.586C280.757 94.565 282.861 95.694 284.856 96.904C286.853 98.112 288.747 99.393 290.542 100.715C294.129 103.362 297.327 106.155 300.151 108.935C302.972 111.719 305.424 114.491 307.464 117.176C309.502 119.86 311.159 122.436 312.36 124.831C313.564 127.222 314.347 129.423 314.628 131.293C314.769 132.225 314.812 133.07 314.729 133.794C314.723 133.976 314.676 134.146 314.654 134.312C314.628 134.478 314.601 134.637 314.553 134.783C314.511 134.93 314.471 135.072 314.433 135.205C314.385 135.335 314.329 135.455 314.283 135.57C314.198 135.805 314.079 135.99 313.983 136.153C313.935 136.234 313.894 136.311 313.849 136.376C313.8 136.438 313.756 136.494 313.716 136.544C313.56 136.746 313.476 136.845 313.476 136.845Z" fill="#727272"/>
<path d="M322.554 114.933C322.554 114.933 322.54 114.803 322.52 114.55C322.515 114.487 322.509 114.416 322.503 114.338C322.492 114.26 322.47 114.176 322.451 114.084C322.411 113.9 322.375 113.685 322.28 113.455C322.238 113.339 322.199 113.214 322.146 113.086C322.084 112.962 322.02 112.832 321.953 112.695C321.891 112.555 321.805 112.421 321.714 112.281C321.62 112.143 321.54 111.987 321.424 111.848C321.003 111.259 320.407 110.663 319.683 110.067C318.23 108.87 316.183 107.76 313.697 106.787C311.208 105.809 308.26 104.998 304.957 104.359C301.652 103.72 297.98 103.291 294.028 103.097C290.075 102.908 285.835 102.957 281.403 103.372C279.188 103.582 276.926 103.887 274.637 104.316C272.348 104.741 270.032 105.299 267.73 106.046C265.437 106.801 263.134 107.731 261.03 109.075C259.988 109.751 258.981 110.526 258.176 111.497C257.777 111.982 257.433 112.515 257.176 113.091C256.938 113.674 256.794 114.295 256.782 114.929C256.793 115.562 256.934 116.184 257.173 116.768C257.431 117.344 257.772 117.878 258.173 118.363C258.976 119.335 259.984 120.11 261.026 120.787C263.13 122.132 265.433 123.062 267.728 123.818C270.03 124.565 272.346 125.124 274.636 125.549C276.925 125.978 279.188 126.283 281.403 126.493C285.836 126.909 290.076 126.958 294.029 126.768C297.982 126.574 301.654 126.144 304.959 125.505C308.262 124.866 311.21 124.056 313.698 123.077C316.184 122.104 318.231 120.994 319.684 119.797C320.409 119.201 321.003 118.606 321.424 118.017C321.541 117.878 321.62 117.722 321.714 117.584C321.806 117.444 321.892 117.31 321.953 117.17C322.02 117.033 322.086 116.903 322.146 116.779C322.199 116.652 322.238 116.526 322.28 116.41C322.375 116.18 322.411 115.965 322.451 115.781C322.47 115.689 322.492 115.605 322.503 115.527C322.509 115.449 322.515 115.378 322.52 115.315C322.541 115.063 322.554 114.933 322.554 114.933C322.554 114.933 322.55 115.063 322.535 115.317C322.531 115.381 322.526 115.452 322.521 115.531C322.511 115.61 322.49 115.694 322.473 115.787C322.435 115.972 322.401 116.189 322.308 116.421C322.267 116.538 322.228 116.664 322.177 116.793C322.116 116.918 322.052 117.05 321.986 117.188C321.924 117.329 321.839 117.465 321.748 117.606C321.655 117.745 321.576 117.903 321.46 118.043C321.039 118.638 320.445 119.24 319.72 119.842C318.267 121.051 316.217 122.172 313.728 123.155C311.237 124.143 308.286 124.962 304.978 125.608C301.669 126.255 297.994 126.691 294.035 126.891C290.077 127.086 285.831 127.041 281.39 126.629C279.171 126.421 276.905 126.116 274.61 125.688C272.315 125.263 269.993 124.704 267.683 123.956C265.38 123.198 263.068 122.266 260.947 120.911C259.895 120.228 258.878 119.446 258.059 118.457C257.651 117.963 257.302 117.417 257.038 116.826C256.793 116.226 256.646 115.584 256.636 114.929C256.647 114.274 256.795 113.633 257.041 113.033C257.305 112.442 257.656 111.897 258.063 111.403C258.882 110.416 259.899 109.633 260.951 108.951C263.072 107.597 265.384 106.666 267.685 105.908C269.995 105.16 272.317 104.601 274.611 104.177C276.906 103.749 279.172 103.445 281.39 103.236C285.829 102.824 290.075 102.779 294.034 102.974C297.992 103.174 301.668 103.61 304.976 104.256C308.284 104.902 311.235 105.722 313.726 106.71C316.216 107.692 318.266 108.813 319.72 110.023C320.445 110.625 321.039 111.227 321.459 111.822C321.575 111.962 321.654 112.12 321.748 112.259C321.839 112.4 321.925 112.536 321.986 112.677C322.052 112.815 322.116 112.947 322.177 113.072C322.228 113.201 322.266 113.327 322.308 113.445C322.401 113.677 322.435 113.894 322.473 114.079C322.49 114.171 322.511 114.256 322.521 114.334C322.526 114.413 322.531 114.484 322.535 114.548C322.55 114.803 322.554 114.933 322.554 114.933Z" fill="#727272"/>
<path d="M310.526 87.656C310.526 87.656 310.415 87.588 310.203 87.448C310.15 87.413 310.091 87.374 310.025 87.331C309.957 87.292 309.877 87.258 309.793 87.217C309.623 87.135 309.431 87.032 309.191 86.966C309.073 86.929 308.95 86.883 308.817 86.846C308.681 86.819 308.539 86.79 308.389 86.76C308.241 86.723 308.081 86.709 307.915 86.696C307.749 86.686 307.576 86.653 307.395 86.66C306.671 86.632 305.836 86.738 304.921 86.945C303.084 87.36 300.952 88.298 298.66 89.667C296.362 91.035 293.915 92.868 291.387 95.087C288.857 97.307 286.268 99.945 283.693 102.951C281.122 105.959 278.563 109.34 276.176 113.097C274.986 114.976 273.84 116.951 272.777 119.022C271.711 121.092 270.733 123.265 269.913 125.541C269.105 127.817 268.43 130.206 268.202 132.692C268.098 133.93 268.094 135.201 268.368 136.431C268.507 137.044 268.718 137.642 269.014 138.198C269.328 138.743 269.732 139.238 270.226 139.635C270.733 140.014 271.312 140.283 271.918 140.453C272.531 140.602 273.162 140.66 273.791 140.64C275.052 140.6 276.281 140.28 277.455 139.87C279.808 139.031 281.953 137.78 283.956 136.431C285.957 135.069 287.818 133.58 289.557 132.032C291.299 130.485 292.926 128.884 294.45 127.262C297.494 124.014 300.131 120.693 302.403 117.452C304.672 114.209 306.582 111.044 308.101 108.04C309.62 105.038 310.786 102.211 311.537 99.645C312.291 97.083 312.668 94.786 312.612 92.904C312.585 91.966 312.478 91.132 312.271 90.438C312.233 90.261 312.158 90.103 312.107 89.944C312.052 89.786 312 89.635 311.926 89.501C311.86 89.364 311.796 89.233 311.736 89.108C311.667 88.989 311.592 88.881 311.526 88.776C311.402 88.561 311.255 88.4 311.133 88.256C311.071 88.185 311.02 88.116 310.965 88.059C310.906 88.006 310.854 87.958 310.807 87.916C310.621 87.747 310.526 87.656 310.526 87.656C310.526 87.656 310.627 87.739 310.818 87.906C310.867 87.948 310.921 87.995 310.979 88.047C311.036 88.103 311.089 88.172 311.152 88.242C311.275 88.385 311.425 88.545 311.552 88.761C311.618 88.866 311.696 88.973 311.766 89.093C311.828 89.218 311.892 89.349 311.96 89.486C312.034 89.621 312.089 89.772 312.146 89.93C312.198 90.089 312.275 90.248 312.314 90.426C312.527 91.123 312.638 91.961 312.67 92.903C312.734 94.793 312.365 97.099 311.616 99.669C310.871 102.243 309.71 105.077 308.194 108.087C306.678 111.098 304.771 114.271 302.504 117.522C300.233 120.77 297.596 124.098 294.55 127.355C293.025 128.98 291.396 130.586 289.652 132.137C287.911 133.69 286.046 135.183 284.04 136.551C282.03 137.906 279.877 139.163 277.506 140.009C276.322 140.422 275.08 140.747 273.798 140.788C273.158 140.808 272.512 140.749 271.883 140.597C271.259 140.423 270.661 140.145 270.137 139.753C269.626 139.342 269.21 138.832 268.887 138.271C268.581 137.7 268.366 137.088 268.226 136.464C267.947 135.212 267.953 133.929 268.057 132.68C268.286 130.174 268.967 127.776 269.779 125.492C270.602 123.208 271.584 121.031 272.654 118.957C273.72 116.882 274.869 114.904 276.063 113.023C278.458 109.262 281.023 105.879 283.602 102.87C286.185 99.864 288.782 97.226 291.32 95.007C293.857 92.789 296.313 90.959 298.621 89.594C300.923 88.229 303.064 87.295 304.911 86.887C305.831 86.683 306.671 86.581 307.398 86.614C307.581 86.608 307.753 86.642 307.92 86.654C308.087 86.669 308.247 86.684 308.397 86.722C308.547 86.754 308.69 86.784 308.827 86.813C308.96 86.852 309.084 86.898 309.202 86.938C309.441 87.007 309.635 87.113 309.804 87.196C309.888 87.239 309.968 87.274 310.035 87.315C310.1 87.359 310.159 87.399 310.213 87.436C310.421 87.58 310.526 87.656 310.526 87.656Z" fill="#727272"/>
<path d="M255.486 130.608C256.161 130.608 256.709 130.06 256.709 129.385C256.709 128.71 256.161 128.162 255.486 128.162C254.811 128.162 254.263 128.71 254.263 129.385C254.263 130.06 254.811 130.608 255.486 130.608Z" fill="#727272"/>
<path d="M324.114 91.855C324.789 91.855 325.337 91.3074 325.337 90.632C325.337 89.9566 324.789 89.409 324.114 89.409C323.439 89.409 322.891 89.9566 322.891 90.632C322.891 91.3074 323.439 91.855 324.114 91.855Z" fill="#727272"/>
<path d="M263.761 132.852C263.933 132.852 264.072 132.713 264.072 132.541C264.072 132.369 263.933 132.23 263.761 132.23C263.589 132.23 263.45 132.369 263.45 132.541C263.45 132.713 263.589 132.852 263.761 132.852Z" fill="#727272"/>
<path d="M270.393 98.59C270.565 98.59 270.704 98.4507 270.704 98.279C270.704 98.1072 270.565 97.968 270.393 97.968C270.221 97.968 270.082 98.1072 270.082 98.279C270.082 98.4507 270.221 98.59 270.393 98.59Z" fill="#727272"/>
<path d="M318.884 115.244C319.056 115.244 319.195 115.105 319.195 114.933C319.195 114.761 319.056 114.622 318.884 114.622C318.712 114.622 318.573 114.761 318.573 114.933C318.573 115.105 318.712 115.244 318.884 115.244Z" fill="#727272"/>
<path d="M323.202 100.757C323.374 100.757 323.513 100.618 323.513 100.446C323.513 100.274 323.374 100.135 323.202 100.135C323.03 100.135 322.891 100.274 322.891 100.446C322.891 100.618 323.03 100.757 323.202 100.757Z" fill="#727272"/>
<path d="M302.571 121.765H298.728V100.85C298.728 95.927 294.723 91.922 289.8 91.922C284.877 91.922 280.871 95.927 280.871 100.85V121.765H277.029V100.85C277.029 93.808 282.758 88.079 289.8 88.079C296.841 88.079 302.571 93.808 302.571 100.85V121.765Z" fill="#E94D4E"/>
<g opacity="0.3">
<path d="M302.571 121.765H298.728V100.85C298.728 95.927 294.723 91.922 289.8 91.922C284.877 91.922 280.871 95.927 280.871 100.85V121.765H277.029V100.85C277.029 93.808 282.758 88.079 289.8 88.079C296.841 88.079 302.571 93.808 302.571 100.85V121.765Z" fill="#E94D4E"/>
</g>
<path d="M304.757 134.544H274.842C273.598 134.544 272.589 133.536 272.589 132.292V114.713C272.589 113.469 273.598 112.461 274.842 112.461H304.757C306.001 112.461 307.01 113.469 307.01 114.713V132.292C307.01 133.536 306.001 134.544 304.757 134.544Z" fill="#E94D4E"/>
<g opacity="0.3">
<path d="M292.677 120.625C292.677 119.036 291.389 117.748 289.8 117.748C288.211 117.748 286.923 119.036 286.923 120.625C286.923 121.94 287.81 123.037 289.015 123.38V127.681H290.584V123.38C291.79 123.037 292.677 121.94 292.677 120.625Z" fill="#E94D4E"/>
</g>
<path d="M274.425 132.45C274.504 132.45 274.568 128.768 274.568 124.225C274.568 119.682 274.504 116 274.425 116C274.346 116 274.282 119.682 274.282 124.225C274.282 128.768 274.346 132.45 274.425 132.45Z" fill="#E94D4E"/>
<path d="M287.547 124.313C287.537 124.327 287.411 124.268 287.209 124.122C287.006 123.976 286.736 123.728 286.468 123.366C285.931 122.662 285.441 121.384 285.759 120.004C286.093 118.627 287.105 117.704 287.901 117.316C288.303 117.113 288.656 117.012 288.902 116.973C289.149 116.933 289.288 116.937 289.29 116.953C289.302 117.007 288.744 117.059 287.998 117.493C287.264 117.908 286.346 118.797 286.038 120.069C285.743 121.343 286.164 122.55 286.635 123.251C287.107 123.974 287.582 124.271 287.547 124.313Z" fill="#E94D4E"/>
<path d="M340.903 173.25H234.923C229.777 173.25 225.606 169.079 225.606 163.933V162.786C225.606 157.64 229.777 153.469 234.923 153.469H340.903C346.049 153.469 350.22 157.64 350.22 162.786V163.933C350.22 169.079 346.048 173.25 340.903 173.25Z" fill="#F5F5F5"/>
<path d="M341.82 200.375H235.84C230.694 200.375 226.523 196.204 226.523 191.058V189.911C226.523 184.765 230.694 180.594 235.84 180.594H341.82C346.966 180.594 351.136 184.765 351.136 189.911V191.058C351.136 196.203 346.965 200.375 341.82 200.375Z" fill="#F5F5F5"/>
<path d="M245.301 163.204V160.339H246.486V163.16C246.486 164.132 246.91 164.534 247.626 164.534C248.35 164.534 248.767 164.132 248.767 163.16V160.339H249.936V163.204C249.936 164.709 249.074 165.543 247.62 165.543C246.164 165.542 245.301 164.709 245.301 163.204Z" fill="#263238"/>
<path d="M250.645 165.089L251.025 164.27C251.376 164.497 251.909 164.65 252.391 164.65C252.917 164.65 253.115 164.511 253.115 164.292C253.115 163.649 250.74 164.307 250.74 162.735C250.74 161.989 251.413 161.463 252.56 161.463C253.1 161.463 253.7 161.588 254.073 161.807L253.693 162.618C253.305 162.399 252.918 162.326 252.56 162.326C252.048 162.326 251.829 162.487 251.829 162.692C251.829 163.364 254.205 162.714 254.205 164.263C254.205 164.994 253.525 165.513 252.349 165.513C251.682 165.513 251.01 165.331 250.645 165.089Z" fill="#263238"/>
<path d="M258.736 163.81H255.761C255.87 164.3 256.286 164.6 256.886 164.6C257.303 164.6 257.603 164.475 257.873 164.22L258.479 164.878C258.114 165.295 257.565 165.514 256.856 165.514C255.497 165.514 254.612 164.659 254.612 163.489C254.612 162.312 255.511 161.465 256.711 161.465C257.865 161.465 258.757 162.24 258.757 163.504C258.757 163.591 258.743 163.715 258.736 163.81ZM255.747 163.145H257.684C257.604 162.648 257.231 162.326 256.719 162.326C256.2 162.326 255.827 162.641 255.747 163.145Z" fill="#263238"/>
<path d="M261.959 161.464V162.517C261.863 162.51 261.791 162.502 261.703 162.502C261.074 162.502 260.657 162.845 260.657 163.598V165.454H259.517V161.522H260.606V162.041C260.884 161.661 261.352 161.464 261.959 161.464Z" fill="#263238"/>
<path d="M266.659 163.204V165.455H265.519V163.379C265.519 162.743 265.226 162.451 264.722 162.451C264.174 162.451 263.779 162.787 263.779 163.511V165.455H262.639V161.523H263.728V161.983C264.035 161.647 264.496 161.464 265.029 161.464C265.958 161.464 266.659 162.005 266.659 163.204Z" fill="#263238"/>
<path d="M271.168 163.211V165.455H270.102V164.965C269.89 165.323 269.481 165.513 268.903 165.513C267.982 165.513 267.434 165.001 267.434 164.322C267.434 163.628 267.923 163.145 269.122 163.145H270.028C270.028 162.655 269.735 162.37 269.122 162.37C268.705 162.37 268.274 162.509 267.989 162.736L267.58 161.939C268.011 161.632 268.646 161.464 269.275 161.464C270.474 161.464 271.168 162.02 271.168 163.211ZM270.029 164.212V163.81H269.247C268.714 163.81 268.546 164.007 268.546 164.27C268.546 164.555 268.787 164.745 269.189 164.745C269.568 164.746 269.897 164.57 270.029 164.212Z" fill="#263238"/>
<path d="M278.843 163.204V165.455H277.703V163.379C277.703 162.743 277.418 162.451 276.957 162.451C276.445 162.451 276.088 162.78 276.088 163.481V165.455H274.947V163.379C274.947 162.743 274.676 162.451 274.202 162.451C273.697 162.451 273.339 162.78 273.339 163.481V165.455H272.199V161.523H273.288V161.976C273.58 161.64 274.018 161.464 274.523 161.464C275.071 161.464 275.539 161.676 275.817 162.107C276.13 161.705 276.642 161.464 277.235 161.464C278.171 161.464 278.843 162.005 278.843 163.204Z" fill="#263238"/>
<path d="M283.741 163.81H280.766C280.875 164.3 281.291 164.6 281.891 164.6C282.308 164.6 282.608 164.475 282.878 164.22L283.484 164.878C283.119 165.295 282.57 165.514 281.861 165.514C280.502 165.514 279.618 164.659 279.618 163.489C279.618 162.312 280.516 161.465 281.716 161.465C282.87 161.465 283.762 162.24 283.762 163.504C283.762 163.591 283.748 163.715 283.741 163.81ZM280.751 163.145H282.688C282.608 162.648 282.235 162.326 281.723 162.326C281.205 162.326 280.832 162.641 280.751 163.145Z" fill="#263238"/>
<path d="M291.276 163.452C291.276 164.76 290.677 165.506 289.778 165.506C289.281 165.506 288.93 165.287 288.777 164.87C288.521 165.28 288.104 165.506 287.527 165.506C286.584 165.506 285.839 164.76 285.839 163.657C285.839 162.56 286.577 161.815 287.527 161.815C288.009 161.815 288.389 161.983 288.653 162.297V161.865H289.646V164.233C289.646 164.584 289.8 164.701 289.998 164.701C290.334 164.701 290.539 164.314 290.539 163.466C290.539 161.983 289.442 160.959 287.819 160.959C286.189 160.959 285.1 162.07 285.1 163.598C285.1 165.155 286.167 166.259 287.789 166.259C288.25 166.259 288.768 166.164 289.229 165.937L289.462 166.609C289.017 166.836 288.366 166.96 287.788 166.96C285.676 166.96 284.28 165.527 284.28 163.598C284.28 161.69 285.69 160.265 287.817 160.265C289.873 160.265 291.276 161.617 291.276 163.452ZM288.667 163.657C288.667 163.021 288.279 162.663 287.753 162.663C287.22 162.663 286.847 163.036 286.847 163.657C286.847 164.285 287.22 164.665 287.753 164.665C288.28 164.665 288.667 164.3 288.667 163.657Z" fill="#263238"/>
<path d="M298.731 163.204V165.455H297.591V163.379C297.591 162.743 297.306 162.451 296.845 162.451C296.333 162.451 295.976 162.78 295.976 163.481V165.455H294.835V163.379C294.835 162.743 294.564 162.451 294.09 162.451C293.585 162.451 293.227 162.78 293.227 163.481V165.455H292.087V161.523H293.176V161.976C293.468 161.64 293.906 161.464 294.411 161.464C294.959 161.464 295.427 161.676 295.705 162.107C296.018 161.705 296.53 161.464 297.123 161.464C298.059 161.464 298.731 162.005 298.731 163.204Z" fill="#263238"/>
<path d="M303.234 163.211V165.455H302.168V164.965C301.956 165.323 301.547 165.513 300.969 165.513C300.048 165.513 299.5 165.001 299.5 164.322C299.5 163.628 299.989 163.145 301.188 163.145H302.094C302.094 162.655 301.802 162.37 301.188 162.37C300.771 162.37 300.34 162.509 300.055 162.736L299.646 161.939C300.077 161.632 300.712 161.464 301.341 161.464C302.54 161.464 303.234 162.02 303.234 163.211ZM302.094 164.212V163.81H301.312C300.779 163.81 300.611 164.007 300.611 164.27C300.611 164.555 300.852 164.745 301.254 164.745C301.633 164.746 301.962 164.57 302.094 164.212Z" fill="#263238"/>
<path d="M304.126 160.338C304.126 159.98 304.411 159.702 304.835 159.702C305.259 159.702 305.544 159.965 305.544 160.316C305.544 160.696 305.259 160.974 304.835 160.974C304.411 160.974 304.126 160.696 304.126 160.338ZM304.265 161.522H305.405V165.454H304.265V161.522Z" fill="#263238"/>
<path d="M306.465 160.031H307.605V165.454H306.465V160.031Z" fill="#263238"/>
<path d="M308.387 164.797C308.387 164.373 308.701 164.095 309.096 164.095C309.492 164.095 309.805 164.373 309.805 164.797C309.805 165.214 309.492 165.513 309.096 165.513C308.702 165.513 308.387 165.213 308.387 164.797Z" fill="#263238"/>
<path d="M310.236 163.488C310.236 162.304 311.15 161.464 312.429 161.464C313.255 161.464 313.906 161.822 314.191 162.465L313.306 162.94C313.094 162.567 312.78 162.399 312.421 162.399C311.844 162.399 311.391 162.801 311.391 163.488C311.391 164.175 311.844 164.577 312.421 164.577C312.779 164.577 313.094 164.416 313.306 164.036L314.191 164.518C313.906 165.146 313.255 165.512 312.429 165.512C311.15 165.513 310.236 164.672 310.236 163.488Z" fill="#263238"/>
<path d="M314.505 163.488C314.505 162.304 315.418 161.464 316.668 161.464C317.918 161.464 318.824 162.304 318.824 163.488C318.824 164.672 317.918 165.513 316.668 165.513C315.418 165.513 314.505 164.672 314.505 163.488ZM317.669 163.488C317.669 162.808 317.238 162.399 316.668 162.399C316.098 162.399 315.659 162.808 315.659 163.488C315.659 164.168 316.097 164.577 316.668 164.577C317.239 164.577 317.669 164.168 317.669 163.488Z" fill="#263238"/>
<path d="M326.229 163.204V165.455H325.089V163.379C325.089 162.743 324.804 162.451 324.343 162.451C323.831 162.451 323.474 162.78 323.474 163.481V165.455H322.333V163.379C322.333 162.743 322.062 162.451 321.588 162.451C321.083 162.451 320.725 162.78 320.725 163.481V165.455H319.585V161.523H320.674V161.976C320.966 161.64 321.404 161.464 321.909 161.464C322.457 161.464 322.925 161.676 323.203 162.107C323.516 161.705 324.028 161.464 324.621 161.464C325.557 161.464 326.229 162.005 326.229 163.204Z" fill="#263238"/>
<path d="M260.573 190.59L262.424 191.592L261.592 192.985L259.724 191.881L259.758 193.936H258.161L258.179 191.864L256.311 192.985L255.496 191.592L257.348 190.59L255.496 189.571L256.311 188.178L258.179 189.299L258.161 187.227H259.758L259.724 189.299L261.592 188.178L262.424 189.571L260.573 190.59Z" fill="#263238"/>
<path d="M268.28 190.59L270.131 191.592L269.299 192.985L267.431 191.881L267.465 193.936H265.868L265.886 191.864L264.018 192.985L263.203 191.592L265.055 190.59L263.203 189.571L264.018 188.178L265.886 189.299L265.868 187.227H267.465L267.431 189.299L269.299 188.178L270.131 189.571L268.28 190.59Z" fill="#263238"/>
<path d="M275.986 190.59L277.837 191.592L277.005 192.985L275.137 191.881L275.171 193.936H273.574L273.592 191.864L271.724 192.985L270.909 191.592L272.761 190.59L270.909 189.571L271.724 188.178L273.592 189.299L273.574 187.227H275.171L275.137 189.299L277.005 188.178L277.837 189.571L275.986 190.59Z" fill="#263238"/>
<path d="M283.693 190.59L285.544 191.592L284.712 192.985L282.844 191.881L282.878 193.936H281.281L281.299 191.864L279.431 192.985L278.616 191.592L280.468 190.59L278.616 189.571L279.431 188.178L281.299 189.299L281.281 187.227H282.878L282.844 189.299L284.712 188.178L285.544 189.571L283.693 190.59Z" fill="#263238"/>
<path d="M291.4 190.59L293.251 191.592L292.419 192.985L290.551 191.881L290.585 193.936H288.988L289.006 191.864L287.138 192.985L286.323 191.592L288.175 190.59L286.323 189.571L287.138 188.178L289.006 189.299L288.988 187.227H290.585L290.551 189.299L292.419 188.178L293.251 189.571L291.4 190.59Z" fill="#263238"/>
<path d="M299.107 190.59L300.958 191.592L300.126 192.985L298.258 191.881L298.292 193.936H296.695L296.713 191.864L294.845 192.985L294.03 191.592L295.882 190.59L294.03 189.571L294.845 188.178L296.713 189.299L296.695 187.227H298.292L298.258 189.299L300.126 188.178L300.958 189.571L299.107 190.59Z" fill="#263238"/>
<path d="M306.813 190.59L308.664 191.592L307.832 192.985L305.964 191.881L305.998 193.936H304.401L304.419 191.864L302.551 192.985L301.736 191.592L303.588 190.59L301.736 189.571L302.551 188.178L304.419 189.299L304.401 187.227H305.998L305.964 189.299L307.832 188.178L308.664 189.571L306.813 190.59Z" fill="#263238"/>
<path d="M314.52 190.59L316.371 191.592L315.539 192.985L313.671 191.881L313.705 193.936H312.108L312.126 191.864L310.258 192.985L309.443 191.592L311.295 190.59L309.443 189.571L310.258 188.178L312.126 189.299L312.108 187.227H313.705L313.671 189.299L315.539 188.178L316.371 189.571L314.52 190.59Z" fill="#263238"/>
<path d="M398.795 335.621H249.769C246.247 335.621 243.391 332.766 243.391 329.243V252.103C243.391 248.581 246.246 245.725 249.769 245.725H398.796C402.317 245.725 405.174 248.58 405.174 252.103V329.243C405.173 332.765 402.317 335.621 398.795 335.621Z" fill="white"/>
<path d="M398.795 335.621C398.792 335.593 399.23 335.629 400.053 335.469C400.857 335.292 402.098 334.874 403.263 333.72C403.836 333.145 404.365 332.378 404.708 331.437C404.895 330.97 404.992 330.452 405.065 329.911C405.106 329.368 405.098 328.791 405.094 328.19C405.087 325.791 405.079 323.024 405.071 319.911C405.051 307.443 405.023 289.419 404.988 267.148C404.985 264.364 404.982 261.512 404.979 258.598C404.978 257.14 404.976 255.667 404.975 254.178C404.939 252.688 405.132 251.162 404.522 249.799C403.971 248.434 402.908 247.266 401.565 246.593C400.896 246.255 400.162 246.04 399.408 245.963C398.664 245.907 397.853 245.943 397.071 245.934C393.911 245.936 390.693 245.939 387.419 245.941C374.321 245.948 360.326 245.957 345.601 245.965C316.148 245.971 283.768 245.978 249.781 245.986C248.76 245.991 247.748 246.249 246.85 246.726C245.966 247.224 245.188 247.921 244.641 248.774C244.1 249.627 243.74 250.606 243.676 251.615C243.626 252.626 243.662 253.708 243.651 254.747C243.651 258.944 243.65 263.113 243.65 267.253C243.649 275.53 243.647 283.687 243.646 291.701C243.644 299.716 243.642 307.588 243.639 315.298C243.638 319.153 243.637 322.968 243.635 326.738C243.642 327.676 243.619 328.634 243.65 329.547C243.692 330.447 243.935 331.333 244.354 332.126C245.196 333.714 246.755 334.878 248.49 335.245C249.347 335.447 250.262 335.363 251.183 335.383C252.098 335.383 253.01 335.383 253.919 335.384C255.736 335.385 257.543 335.386 259.337 335.387C262.925 335.389 266.464 335.39 269.953 335.392C276.93 335.397 283.704 335.401 290.253 335.406C303.351 335.418 315.551 335.427 326.69 335.437C348.961 335.472 366.984 335.5 379.451 335.52C385.673 335.541 390.506 335.558 393.795 335.569C395.428 335.581 396.675 335.59 397.525 335.595C398.365 335.603 398.795 335.621 398.795 335.621C398.795 335.621 398.364 335.639 397.524 335.647C396.673 335.653 395.426 335.662 393.794 335.673C390.505 335.684 385.672 335.7 379.45 335.722C366.983 335.742 348.96 335.77 326.689 335.804C315.55 335.814 303.35 335.825 290.252 335.836C283.703 335.84 276.929 335.845 269.952 335.849C266.463 335.851 262.924 335.853 259.336 335.855C257.542 335.856 255.735 335.857 253.918 335.858C253.009 335.858 252.097 335.859 251.182 335.859C250.281 335.84 249.338 335.93 248.389 335.714C246.516 335.319 244.835 334.066 243.925 332.354C243.472 331.499 243.209 330.541 243.163 329.57C243.13 328.61 243.153 327.686 243.145 326.738C243.144 322.967 243.143 319.153 243.141 315.298C243.139 307.588 243.137 299.716 243.135 291.701C243.134 283.686 243.133 275.53 243.131 267.253C243.131 263.113 243.13 258.944 243.13 254.747C243.142 253.689 243.103 252.667 243.156 251.574C243.226 250.479 243.616 249.415 244.203 248.49C244.798 247.564 245.641 246.807 246.6 246.268C247.573 245.75 248.675 245.47 249.78 245.465C283.767 245.472 316.147 245.48 345.6 245.486C360.326 245.495 374.321 245.503 387.418 245.51C390.692 245.512 393.91 245.515 397.07 245.517C397.866 245.529 398.63 245.491 399.448 245.552C400.252 245.635 401.036 245.866 401.749 246.227C403.18 246.947 404.311 248.193 404.895 249.648C405.192 250.374 405.349 251.152 405.362 251.927C405.365 252.681 405.367 253.431 405.369 254.177C405.368 255.666 405.366 257.139 405.365 258.597C405.362 261.511 405.359 264.363 405.356 267.147C405.321 289.418 405.293 307.442 405.273 319.91C405.264 323.023 405.256 325.79 405.25 328.189C405.249 328.788 405.254 329.365 405.207 329.924C405.128 330.477 405.024 331.006 404.83 331.481C404.471 332.439 403.926 333.214 403.337 333.794C402.14 334.955 400.877 335.359 400.063 335.521C399.646 335.586 399.33 335.624 399.116 335.619C398.903 335.625 398.795 335.621 398.795 335.621Z" fill="#263238"/>
<path d="M299.756 277.489V278.612H295.075V272.566H299.643V273.689H296.465V275.002H299.272V276.091H296.465V277.489H299.756Z" fill="#263238"/>
<path d="M306.417 272.566V278.612H305.269L302.254 274.941V278.612H300.872V272.566H302.029L305.035 276.237V272.566H306.417Z" fill="#263238"/>
<path d="M309.105 273.707H307.17V272.566H312.439V273.707H310.504V278.612H309.105V273.707Z" fill="#263238"/>
<path d="M317.872 277.489V278.612H313.191V272.566H317.759V273.689H314.581V275.002H317.388V276.091H314.581V277.489H317.872Z" fill="#263238"/>
<path d="M322.839 278.612L321.673 276.927H321.605H320.387V278.612H318.988V272.566H321.605C323.219 272.566 324.23 273.404 324.23 274.76C324.23 275.666 323.772 276.331 322.987 276.668L324.342 278.611H322.839V278.612ZM321.527 273.707H320.387V275.814H321.527C322.382 275.814 322.814 275.417 322.814 274.76C322.814 274.095 322.382 273.707 321.527 273.707Z" fill="#263238"/>
<path d="M327.402 275.589C327.402 273.767 328.801 272.462 330.684 272.462C331.729 272.462 332.601 272.842 333.171 273.533L332.273 274.362C331.867 273.895 331.357 273.654 330.752 273.654C329.621 273.654 328.817 274.448 328.817 275.589C328.817 276.729 329.621 277.524 330.752 277.524C331.356 277.524 331.866 277.282 332.273 276.807L333.171 277.636C332.601 278.335 331.729 278.715 330.675 278.715C328.801 278.715 327.402 277.412 327.402 275.589Z" fill="#263238"/>
<path d="M333.605 275.589C333.605 273.792 335.004 272.462 336.913 272.462C338.813 272.462 340.221 273.783 340.221 275.589C340.221 277.394 338.814 278.715 336.913 278.715C335.004 278.715 333.605 277.385 333.605 275.589ZM338.804 275.589C338.804 274.44 337.992 273.654 336.912 273.654C335.833 273.654 335.02 274.439 335.02 275.589C335.02 276.737 335.833 277.524 336.912 277.524C337.993 277.524 338.804 276.738 338.804 275.589Z" fill="#263238"/>
<path d="M341.276 272.566H344.022C346.001 272.566 347.356 273.758 347.356 275.589C347.356 277.42 346.001 278.611 344.022 278.611H341.276V272.566ZM343.954 277.463C345.154 277.463 345.94 276.746 345.94 275.589C345.94 274.432 345.154 273.715 343.954 273.715H342.676V277.463H343.954Z" fill="#263238"/>
<path d="M353.092 277.489V278.612H348.411V272.566H352.979V273.689H349.801V275.002H352.608V276.091H349.801V277.489H353.092Z" fill="#263238"/>
<path d="M276.818 319.037H262.134C259.95 319.037 258.182 317.267 258.182 315.085V292.217C258.182 290.034 259.951 288.265 262.134 288.265H276.818C279.001 288.265 280.77 290.035 280.77 292.217V315.085C280.77 317.267 279 319.037 276.818 319.037Z" fill="#EBEBEB"/>
<path d="M305.025 319.037H290.341C288.158 319.037 286.389 317.267 286.389 315.085V292.217C286.389 290.034 288.159 288.265 290.341 288.265H305.025C307.208 288.265 308.977 290.035 308.977 292.217V315.085C308.977 317.267 307.208 319.037 305.025 319.037Z" fill="#EBEBEB"/>
<path d="M333.232 319.037H318.549C316.365 319.037 314.596 317.267 314.596 315.085V292.217C314.596 290.034 316.366 288.265 318.549 288.265H333.232C335.415 288.265 337.184 290.035 337.184 292.217V315.085C337.184 317.267 335.415 319.037 333.232 319.037Z" fill="#EBEBEB"/>
<path d="M361.44 319.037H346.756C344.573 319.037 342.804 317.267 342.804 315.085V292.217C342.804 290.034 344.574 288.265 346.756 288.265H361.44C363.623 288.265 365.392 290.035 365.392 292.217V315.085C365.392 317.267 363.623 319.037 361.44 319.037Z" fill="#EBEBEB"/>
<path d="M389.647 319.037H374.964C372.78 319.037 371.011 317.267 371.011 315.085V292.217C371.011 290.034 372.781 288.265 374.964 288.265H389.647C391.83 288.265 393.599 290.035 393.599 292.217V315.085C393.599 317.267 391.83 319.037 389.647 319.037Z" fill="#EBEBEB"/>
<path d="M274.397 306.028C274.397 308.225 272.698 309.65 270.397 309.65C267.239 309.65 265.574 307.384 265.574 303.625C265.574 299.557 267.737 297.462 270.913 297.462C271.942 297.462 272.904 297.634 273.642 298.08L273.281 298.784C272.664 298.389 271.822 298.234 270.913 298.234C268.218 298.234 266.449 300.003 266.449 303.487C266.449 303.847 266.467 304.38 266.553 304.929C267.051 303.35 268.561 302.457 270.381 302.457C272.784 302.458 274.397 303.865 274.397 306.028ZM273.521 306.044C273.521 304.328 272.286 303.212 270.26 303.212C268.285 303.212 266.929 304.465 266.929 306.079C266.929 307.486 268.114 308.893 270.363 308.893C272.234 308.894 273.521 307.779 273.521 306.044Z" fill="#727272"/>
<path d="M302.301 306.234H299.778V309.564H298.921V306.234H292.071V305.598L298.594 297.547H299.572L293.17 305.461H298.938V302.525H299.779V305.461H302.302V306.234H302.301Z" fill="#727272"/>
<path d="M326.158 311.53C329.049 311.53 331.393 311.413 331.393 311.269C331.393 311.125 329.049 311.008 326.158 311.008C323.267 311.008 320.923 311.125 320.923 311.269C320.923 311.413 323.267 311.53 326.158 311.53Z" fill="#727272"/>
<path d="M253.662 257.145C255.015 257.145 256.111 256.049 256.111 254.696C256.111 253.343 255.015 252.247 253.662 252.247C252.309 252.247 251.213 253.343 251.213 254.696C251.213 256.049 252.309 257.145 253.662 257.145Z" fill="#263238"/>
<path d="M260.722 257.146C262.075 257.146 263.172 256.049 263.172 254.696C263.172 253.343 262.075 252.246 260.722 252.246C259.369 252.246 258.272 253.343 258.272 254.696C258.272 256.049 259.369 257.146 260.722 257.146Z" fill="#263238"/>
<path d="M267.653 257.145C269.006 257.145 270.102 256.049 270.102 254.696C270.102 253.343 269.006 252.247 267.653 252.247C266.301 252.247 265.204 253.343 265.204 254.696C265.204 256.049 266.301 257.145 267.653 257.145Z" fill="#263238"/>
<path d="M405.416 261.598C405.416 261.742 369.194 261.858 324.522 261.858C279.834 261.858 243.621 261.742 243.621 261.598C243.621 261.453 279.835 261.337 324.522 261.337C369.194 261.337 405.416 261.454 405.416 261.598Z" fill="#263238"/>
<path d="M223.697 135.354H145.801C143.563 135.354 141.749 137.168 141.749 139.406V174.893C141.749 177.131 143.563 178.945 145.801 178.945H178.48L185.421 187.846L191.206 178.945H223.698C225.935 178.945 227.75 177.131 227.75 174.893V139.406C227.749 137.168 225.935 135.354 223.697 135.354Z" fill="white"/>
<path d="M223.697 135.354C223.697 135.354 223.826 135.347 224.082 135.353C224.334 135.379 224.721 135.416 225.192 135.6C225.661 135.779 226.228 136.089 226.734 136.642C227.246 137.18 227.681 137.98 227.801 138.957C227.876 142.823 227.863 148.442 227.895 155.561C227.904 159.121 227.914 163.05 227.924 167.312C227.928 169.444 227.933 171.661 227.938 173.955C227.928 174.521 227.98 175.112 227.858 175.724C227.742 176.325 227.484 176.901 227.117 177.402C226.391 178.413 225.177 179.089 223.887 179.135C214.086 179.15 203.095 179.166 191.205 179.183L191.407 179.074C189.591 181.873 187.629 184.896 185.629 187.979L185.44 188.271L185.226 187.996C183.034 185.188 180.677 182.17 178.28 179.1L178.481 179.198C169.48 179.2 160.061 179.202 150.397 179.204C149.269 179.204 148.144 179.204 147.023 179.204C146.453 179.194 145.925 179.229 145.316 179.175C144.725 179.109 144.149 178.917 143.638 178.617C142.611 178.023 141.854 176.993 141.599 175.841C141.459 175.258 141.497 174.672 141.492 174.135V172.484C141.493 168.089 141.495 163.759 141.496 159.505C141.498 155.251 141.5 151.071 141.503 146.978C141.504 144.932 141.505 142.907 141.507 140.905L141.508 139.408C141.511 138.881 141.609 138.355 141.798 137.866C142.173 136.886 142.918 136.065 143.839 135.592C144.298 135.355 144.8 135.197 145.312 135.145C145.837 135.097 146.304 135.122 146.79 135.116C147.755 135.117 148.714 135.117 149.666 135.118C151.57 135.12 153.45 135.122 155.302 135.124C159.006 135.128 162.601 135.133 166.078 135.137C173.03 135.148 179.507 135.159 185.421 135.169C197.234 135.204 206.799 135.232 213.429 135.252C216.723 135.273 219.284 135.29 221.044 135.301C221.902 135.312 222.561 135.321 223.024 135.327C223.469 135.336 223.697 135.354 223.697 135.354C223.697 135.354 223.468 135.372 223.022 135.38C222.558 135.386 221.899 135.395 221.042 135.406C219.283 135.417 216.722 135.434 213.427 135.455C206.797 135.475 197.232 135.503 185.419 135.538C179.504 135.548 173.028 135.559 166.076 135.57C162.599 135.574 159.003 135.579 155.3 135.583C153.448 135.585 151.569 135.586 149.664 135.589C148.711 135.589 147.753 135.59 146.788 135.591C146.31 135.597 145.807 135.576 145.364 135.619C144.909 135.666 144.465 135.807 144.057 136.018C143.24 136.44 142.58 137.17 142.248 138.04C142.081 138.474 141.995 138.938 141.993 139.408L141.994 140.905C141.995 142.907 141.996 144.932 141.998 146.978C142 151.071 142.002 155.25 142.004 159.505C142.005 163.759 142.007 168.089 142.008 172.484V174.135C142.013 174.697 141.981 175.229 142.104 175.727C142.328 176.739 142.995 177.645 143.897 178.167C144.347 178.43 144.852 178.599 145.372 178.657C145.876 178.704 146.47 178.674 147.021 178.683C148.142 178.683 149.267 178.683 150.395 178.683C160.059 178.685 169.478 178.687 178.479 178.689H178.604L178.68 178.787C181.074 181.86 183.427 184.881 185.616 187.691L185.213 187.709C187.218 184.629 189.184 181.609 191.004 178.813L191.075 178.704H191.205C203.089 178.715 214.074 178.725 223.869 178.734C225.037 178.696 226.14 178.088 226.803 177.172C227.138 176.718 227.374 176.196 227.482 175.65C227.594 175.113 227.549 174.534 227.561 173.956C227.565 171.662 227.57 169.445 227.574 167.313C227.585 163.05 227.595 159.121 227.603 155.562C227.622 148.463 227.637 142.841 227.647 138.975C227.543 138.034 227.136 137.253 226.647 136.722C226.166 136.176 225.619 135.862 225.164 135.675C224.236 135.309 223.689 135.395 223.697 135.354Z" fill="#263238"/>
<path d="M170.164 145.368V146.681H169.306V145.358L167.871 142.975H168.782L169.772 144.621L170.762 142.975H171.604L170.164 145.368Z" fill="#263238"/>
<path d="M171.576 144.828C171.576 143.727 172.434 142.912 173.604 142.912C174.769 142.912 175.632 143.722 175.632 144.828C175.632 145.935 174.769 146.745 173.604 146.745C172.434 146.745 171.576 145.93 171.576 144.828ZM174.763 144.828C174.763 144.124 174.265 143.642 173.603 143.642C172.941 143.642 172.443 144.123 172.443 144.828C172.443 145.533 172.941 146.015 173.603 146.015C174.266 146.015 174.763 145.532 174.763 144.828Z" fill="#263238"/>
<path d="M176.25 145.051V142.976H177.108V145.02C177.108 145.724 177.415 146.015 177.934 146.015C178.458 146.015 178.76 145.724 178.76 145.02V142.976H179.607V145.051C179.607 146.142 178.982 146.745 177.928 146.745C176.875 146.745 176.25 146.142 176.25 145.051Z" fill="#263238"/>
<path d="M182.82 146.682L182.105 145.65H182.063H181.316V146.682H180.458V142.976H182.062C183.052 142.976 183.671 143.49 183.671 144.321C183.671 144.877 183.39 145.285 182.909 145.491L183.74 146.682H182.82ZM182.015 143.674H181.316V144.966H182.015C182.539 144.966 182.804 144.723 182.804 144.32C182.804 143.912 182.54 143.674 182.015 143.674Z" fill="#263238"/>
<path d="M185.621 144.828C185.621 143.711 186.479 142.912 187.633 142.912C188.274 142.912 188.808 143.144 189.158 143.568L188.607 144.076C188.358 143.791 188.045 143.642 187.675 143.642C186.982 143.642 186.489 144.129 186.489 144.828C186.489 145.527 186.982 146.015 187.675 146.015C188.046 146.015 188.358 145.867 188.607 145.576L189.158 146.084C188.808 146.514 188.274 146.746 187.628 146.746C186.479 146.745 185.621 145.945 185.621 144.828Z" fill="#263238"/>
<path d="M189.426 144.828C189.426 143.727 190.284 142.912 191.454 142.912C192.619 142.912 193.482 143.722 193.482 144.828C193.482 145.935 192.619 146.745 191.454 146.745C190.284 146.745 189.426 145.93 189.426 144.828ZM192.614 144.828C192.614 144.124 192.116 143.642 191.454 143.642C190.792 143.642 190.294 144.123 190.294 144.828C190.294 145.533 190.792 146.015 191.454 146.015C192.116 146.015 192.614 145.532 192.614 144.828Z" fill="#263238"/>
<path d="M194.132 142.976H195.816C197.029 142.976 197.86 143.706 197.86 144.829C197.86 145.952 197.029 146.683 195.816 146.683H194.132V142.976ZM195.774 145.978C196.51 145.978 196.992 145.539 196.992 144.829C196.992 144.12 196.51 143.681 195.774 143.681H194.99V145.979H195.774V145.978Z" fill="#263238"/>
<path d="M201.38 145.993V146.681H198.51V142.975H201.311V143.663H199.363V144.468H201.084V145.135H199.363V145.992L201.38 145.993Z" fill="#263238"/>
<path d="M216.097 170.91H153.401C151.443 170.91 149.856 169.323 149.856 167.365V154.12C149.856 152.162 151.443 150.575 153.401 150.575H216.097C218.055 150.575 219.642 152.162 219.642 154.12V167.365C219.643 169.322 218.055 170.91 216.097 170.91Z" fill="#F5F5F5"/>
<path d="M164.042 161.987C164.042 163.788 162.649 164.956 160.764 164.956C158.175 164.956 156.811 163.099 156.811 160.018C156.811 156.684 158.583 154.968 161.186 154.968C162.03 154.968 162.818 155.109 163.423 155.474L163.127 156.051C162.621 155.728 161.931 155.601 161.186 155.601C158.978 155.601 157.528 157.05 157.528 159.906C157.528 160.202 157.542 160.637 157.612 161.088C158.02 159.794 159.258 159.063 160.749 159.063C162.72 159.062 164.042 160.215 164.042 161.987ZM163.325 162.002C163.325 160.595 162.312 159.681 160.652 159.681C159.034 159.681 157.923 160.707 157.923 162.031C157.923 163.184 158.894 164.338 160.736 164.338C162.27 164.337 163.325 163.423 163.325 162.002Z" fill="#727272"/>
<path d="M177.114 162.156H175.046V164.885H174.342V162.156H168.729V161.635L174.075 155.037H174.877L169.629 161.522H174.356V159.116H175.045V161.522H177.113L177.114 162.156Z" fill="#727272"/>
<path d="M188.047 162.114C188.047 163.746 186.865 164.956 184.6 164.956C183.151 164.956 181.814 164.422 181.125 163.634L181.491 163.085C182.096 163.774 183.249 164.295 184.6 164.295C186.373 164.295 187.315 163.451 187.315 162.114C187.315 160.792 186.415 159.933 184.445 159.933H183.826V159.412L186.738 155.683H181.49V155.037H187.666V155.543L184.712 159.328C186.95 159.385 188.047 160.511 188.047 162.114Z" fill="#727272"/>
<path d="M199.952 155.038V155.544L195.717 164.886H194.929L199.122 155.685H193.593V157.571H192.89V155.039H199.952V155.038Z" fill="#727272"/>
<path d="M204.976 159.962C204.976 156.881 206.566 154.968 208.83 154.968C211.095 154.968 212.685 156.881 212.685 159.962C212.685 163.043 211.095 164.956 208.83 164.956C206.566 164.956 204.976 163.043 204.976 159.962ZM211.968 159.962C211.968 157.219 210.688 155.629 208.83 155.629C206.973 155.629 205.693 157.219 205.693 159.962C205.693 162.705 206.973 164.295 208.83 164.295C210.688 164.295 211.968 162.705 211.968 159.962Z" fill="#727272"/>
<path d="M419.402 417.516C432.494 411.958 447.651 401.027 454.413 387.622C440.291 393.296 427.838 403.929 419.402 417.516Z" fill="#263238"/>
<path d="M422.186 396.714C435.278 391.157 450.436 380.226 457.197 366.82C443.075 372.495 430.623 383.127 422.186 396.714Z" fill="#263238"/>
<path d="M425.974 376.481C439.066 370.924 454.223 359.993 460.985 346.588C446.863 352.261 434.41 362.894 425.974 376.481Z" fill="#263238"/>
<path d="M430.723 355.3C443.074 347.971 456.84 335.034 461.97 320.823C448.61 328.412 437.496 340.675 430.723 355.3Z" fill="#263238"/>
<path d="M435.797 339.092C444.797 327.32 453.187 309.804 453.076 294.624C443.223 307.046 437.078 322.863 435.797 339.092Z" fill="#263238"/>
<path d="M433.281 346.797C431.464 330.881 425.271 310.867 414.76 298.931C416.43 315.987 423.017 333.012 433.281 346.797Z" fill="#263238"/>
<path d="M429.049 364.208C425.845 347.797 417.745 327.5 405.811 315.988C408.954 333.599 417.219 350.75 429.049 364.208Z" fill="#263238"/>
<path d="M424.187 385.44C420.984 369.029 412.884 348.732 400.949 337.221C404.092 354.832 412.358 371.982 424.187 385.44Z" fill="#263238"/>
<path d="M420.287 411.507C417.084 395.096 408.984 374.799 397.049 363.288C400.192 380.899 408.458 398.049 420.287 411.507Z" fill="#263238"/>
<path d="M436.407 335.973C436.399 335.97 436.365 336.053 436.306 336.218C436.241 336.411 436.159 336.653 436.057 336.952C435.838 337.639 435.535 338.588 435.15 339.791C434.363 342.258 433.298 345.85 432.053 350.308C430.798 354.764 429.419 360.102 427.996 366.055C426.599 372.014 425.175 378.592 423.861 385.534C422.564 392.48 421.505 399.129 420.642 405.189C419.804 411.253 419.154 416.728 418.703 421.335C418.244 425.941 417.931 429.675 417.767 432.258C417.688 433.519 417.625 434.513 417.579 435.233C417.565 435.548 417.554 435.803 417.544 436.007C417.538 436.181 417.54 436.272 417.549 436.272C417.558 436.273 417.573 436.184 417.596 436.011C417.619 435.808 417.648 435.554 417.683 435.24C417.751 434.523 417.845 433.532 417.965 432.274C418.19 429.697 418.558 425.971 419.062 421.374C419.559 416.776 420.247 411.311 421.109 405.257C421.996 399.206 423.069 392.568 424.364 385.63C425.677 378.696 427.084 372.123 428.455 366.164C429.851 360.211 431.192 354.869 432.401 350.404C433.601 345.938 434.612 342.333 435.339 339.85C435.685 338.635 435.957 337.676 436.154 336.984C436.236 336.678 436.301 336.432 436.354 336.234C436.398 336.064 436.416 335.975 436.407 335.973Z" fill="#263238"/>
<path d="M413.024 426.184C418.575 414.557 422.613 398.211 419.887 385.451C413.73 397.787 411.289 412.275 413.024 426.184Z" fill="#E94D4E"/>
<path d="M403.789 411.129C409.34 399.502 413.379 383.155 410.653 370.396C404.495 382.732 402.053 397.22 403.789 411.129Z" fill="#E94D4E"/>
<path d="M395.507 395.821C401.058 384.194 405.097 367.848 402.37 355.088C396.213 367.423 393.772 381.912 395.507 395.821Z" fill="#E94D4E"/>
<path d="M387.346 379.313C391.475 367.005 393.546 350.231 389.333 337.958C384.686 351.052 383.979 365.762 387.346 379.313Z" fill="#E94D4E"/>
<path d="M382.037 365.793C381.632 352.699 377.78 336.3 369.65 326.633C369.846 340.668 374.252 354.597 382.037 365.793Z" fill="#E94D4E"/>
<path d="M384.493 372.284C374.864 363.197 360.219 354.176 347.056 352.995C357.195 362.904 370.51 369.764 384.493 372.284Z" fill="#E94D4E"/>
<path d="M390.988 386.056C380.196 377.504 364.162 369.477 350.3 369.446C361.69 378.803 376.163 384.711 390.988 386.056Z" fill="#E94D4E"/>
<path d="M399.103 402.667C388.31 394.116 372.276 386.088 358.415 386.057C369.805 395.414 384.277 401.322 399.103 402.667Z" fill="#E94D4E"/>
<path d="M410.409 421.786C399.616 413.235 383.582 405.206 369.721 405.176C381.111 414.533 395.583 420.441 410.409 421.786Z" fill="#E94D4E"/>
<path d="M380.777 363.417C380.769 363.421 380.79 363.494 380.838 363.634C380.898 363.8 380.972 364.002 381.062 364.25C381.283 364.826 381.584 365.612 381.965 366.604C382.75 368.648 383.952 371.58 385.493 375.178C388.575 382.376 393.138 392.197 398.807 402.717C401.651 407.974 404.495 412.907 407.162 417.346C409.853 421.77 412.346 425.711 414.519 428.968C416.682 432.231 418.479 434.84 419.759 436.616C420.381 437.477 420.873 438.159 421.235 438.659C421.394 438.87 421.523 439.042 421.63 439.183C421.721 439.299 421.771 439.357 421.777 439.352C421.783 439.347 421.748 439.28 421.67 439.155C421.575 439.006 421.459 438.824 421.316 438.602C420.973 438.089 420.505 437.39 419.916 436.507C418.685 434.699 416.933 432.062 414.808 428.778C412.673 425.501 410.214 421.545 407.548 417.114C404.905 412.669 402.076 407.735 399.236 402.485C393.574 391.978 388.967 382.196 385.808 375.04C384.228 371.462 382.978 368.553 382.139 366.532C381.722 365.555 381.393 364.781 381.151 364.214C381.044 363.974 380.955 363.776 380.882 363.615C380.821 363.481 380.785 363.414 380.777 363.417Z" fill="#E94D4E"/>
<path d="M386.582 427.587H441.742V438.219H436.074L431.299 468.54H397.204L392.294 438.219H386.582V427.587Z" fill="#727272"/>
<path d="M413.962 438.253C429.084 438.253 441.343 438.138 441.343 437.997C441.343 437.856 429.084 437.741 413.962 437.741C398.84 437.741 386.581 437.856 386.581 437.997C386.581 438.138 398.84 438.253 413.962 438.253Z" fill="#263238"/>
<path d="M70.614 468.557H61.661L58.341 428.254H68.884L70.614 468.557Z" fill="#263238"/>
<path d="M148.205 468.557H157.159L160.478 428.254H149.935L148.205 468.557Z" fill="#263238"/>
<path d="M166.629 433.357L51.393 436.062L47.886 361.631C47.543 354.343 53.359 348.246 60.655 348.246H158.837C166.246 348.246 172.103 354.523 171.589 361.914L166.629 433.357Z" fill="#727272"/>
<path d="M172.538 361.376C172.538 361.385 172.429 361.394 172.216 361.403C171.975 361.41 171.664 361.42 171.272 361.431C170.407 361.444 169.19 361.462 167.64 361.486C164.451 361.497 159.895 361.513 154.281 361.534C143.002 361.553 127.418 361.426 110.218 361.825C93.01 362.396 77.413 362.299 66.136 362.128C60.496 362.039 55.933 361.929 52.781 361.834C51.232 361.781 50.015 361.739 49.151 361.71C48.759 361.69 48.448 361.676 48.207 361.664C47.995 361.65 47.886 361.64 47.886 361.631C47.886 361.621 47.995 361.615 48.208 361.61C48.449 361.609 48.761 361.607 49.153 361.605C50.018 361.611 51.235 361.62 52.785 361.631C55.973 361.661 60.528 361.705 66.141 361.759C77.419 361.836 92.999 361.875 110.206 361.304C127.419 360.905 143.004 361.09 154.283 361.165C159.897 361.214 164.451 361.254 167.64 361.282C169.19 361.301 170.407 361.315 171.272 361.325C171.664 361.335 171.976 361.343 172.217 361.348C172.429 361.359 172.538 361.367 172.538 361.376Z" fill="#263238"/>
<path d="M89.921 349.41C89.953 349.584 86.31 349.646 82.439 351.655C78.539 353.612 76.352 356.524 76.23 356.396C76.184 356.363 76.656 355.595 77.657 354.544C78.652 353.494 80.223 352.205 82.202 351.19C84.183 350.183 86.15 349.668 87.584 349.478C89.022 349.285 89.92 349.353 89.921 349.41Z" fill="#263238"/>
<path d="M137.316 214.081L151.404 239.814L172.04 228.272L182.075 231.584C182.075 231.584 156.757 259.035 152.649 260.433C148.541 261.831 140.763 262.086 136.315 256.521C132.265 251.455 120.48 224.846 120.48 224.846L137.316 214.081Z" fill="#FFBE9D"/>
<path d="M195.311 197.283C194.944 196.829 194.367 196.6 193.789 196.68L183.976 198.03C183.116 198.163 182.352 198.655 181.877 199.385L161.498 230.707L163.065 231.582L173.917 231.241L195.621 197.665L195.311 197.283Z" fill="#263238"/>
<path d="M188.424 200.5C188.179 200.779 188.151 201.154 188.36 201.338C188.569 201.521 188.937 201.444 189.182 201.165C189.427 200.886 189.455 200.511 189.246 200.327C189.037 200.144 188.669 200.221 188.424 200.5Z" fill="white"/>
<path d="M195.62 197.666C195.625 197.707 194.95 197.838 193.723 198.041C192.396 198.247 190.643 198.518 188.522 198.846C187.413 199.009 186.211 199.185 184.927 199.374C184.309 199.43 183.76 199.749 183.41 200.268C183.033 200.852 182.646 201.453 182.249 202.068C180.644 204.543 178.888 207.249 177.045 210.09C173.338 215.774 169.955 220.901 167.482 224.595C166.277 226.373 165.281 227.842 164.527 228.954C163.819 229.976 163.411 230.531 163.377 230.508C163.343 230.486 163.686 229.889 164.335 228.828C165.049 227.69 165.992 226.186 167.133 224.367C169.517 220.614 172.845 215.45 176.551 209.767C178.408 206.935 180.177 204.237 181.794 201.77C182.2 201.156 182.596 200.557 182.982 199.974C183.412 199.33 184.165 198.937 184.849 198.89C186.139 198.727 187.346 198.574 188.459 198.433C190.593 198.18 192.357 197.971 193.692 197.813C194.928 197.68 195.614 197.625 195.62 197.666Z" fill="#455A64"/>
<path d="M184.734 208.863C184.734 208.863 183.859 208.706 183.38 211.099C182.901 213.492 181.359 220.355 181.359 220.355L176.776 217.92L171.043 218.667C171.043 218.667 169.792 219.823 170.71 220.451C171.627 221.078 175.252 221.725 175.252 221.725L177.924 225.568L170.253 221.87C170.253 221.87 167.694 222.537 168.443 224.099C169.193 225.661 174.365 230.548 174.365 230.548L170.522 230.257L165.952 227.482C165.952 227.482 164.55 227.545 165.073 228.74C165.596 229.934 170.348 234.249 170.348 234.249L176.111 237.045C176.111 237.045 179.257 236.798 179.559 235.874C179.861 234.95 179.938 233.632 179.938 233.632C179.938 233.632 181.608 233.182 181.92 232.372C182.232 231.562 182.031 230.281 182.031 230.281C182.031 230.281 184.653 230.741 184.978 229.28C185.304 227.819 185.03 224.94 184.766 223.816C184.501 222.692 185.883 212.244 185.776 211.929C185.667 211.613 186.377 208.172 184.734 208.863Z" fill="#FFBE9D"/>
<path d="M179.76 235.887C179.779 235.955 179.222 236.2 178.257 236.354C177.296 236.511 175.919 236.526 174.459 236.182C173 235.832 171.777 235.198 170.99 234.625C170.197 234.053 169.81 233.583 169.858 233.531C169.966 233.383 171.792 234.964 174.596 235.607C177.386 236.295 179.729 235.706 179.76 235.887Z" fill="#EB996E"/>
<path d="M178.395 233.82C178.305 233.953 177.284 233.418 176.194 232.523C175.102 231.629 174.378 230.733 174.49 230.619C174.606 230.501 175.499 231.192 176.568 232.067C177.636 232.943 178.488 233.683 178.395 233.82Z" fill="#EB996E"/>
<path d="M181.426 228.848C181.339 228.981 180.324 228.459 179.303 227.512C178.278 226.568 177.677 225.599 177.803 225.501C177.934 225.397 178.716 226.169 179.704 227.078C180.688 227.991 181.52 228.71 181.426 228.848Z" fill="#EB996E"/>
<path d="M184.615 224.842C184.458 224.909 183.879 223.827 182.965 222.649C182.061 221.463 181.165 220.626 181.27 220.491C181.358 220.364 182.474 221.033 183.434 222.289C184.4 223.54 184.761 224.79 184.615 224.842Z" fill="#EB996E"/>
<path d="M188.514 410.302C188.548 410.301 188.581 409.961 188.485 409.355C188.386 408.753 188.139 407.875 187.527 406.944C187.37 406.716 187.214 406.47 186.956 406.248C186.712 406.026 186.29 405.855 185.884 406.006C185.682 406.071 185.48 406.256 185.409 406.483C185.333 406.713 185.371 406.941 185.431 407.127C185.564 407.508 185.764 407.78 185.931 408.095C186.303 408.721 186.61 409.344 187.085 410.049C187.325 410.409 187.865 410.707 188.357 410.622C188.842 410.56 189.234 410.326 189.587 410.077C190.272 409.58 190.876 409.014 191.394 408.412C191.653 408.11 191.89 407.8 192.106 407.484C192.31 407.171 192.55 406.854 192.641 406.42C192.733 406 192.574 405.449 192.098 405.259C191.615 405.085 191.222 405.327 190.953 405.518C190.407 405.971 190.079 406.436 189.746 406.886C189.111 407.783 188.761 408.607 188.563 409.181C188.369 409.76 188.323 410.095 188.356 410.104C188.454 410.145 188.779 408.81 190.067 407.124C190.387 406.725 190.784 406.238 191.227 405.899C191.454 405.738 191.736 405.633 191.907 405.72C192.088 405.784 192.188 406.055 192.129 406.317C192.073 406.587 191.869 406.876 191.66 407.176C191.451 407.473 191.222 407.765 190.974 408.048C190.477 408.614 189.9 409.15 189.255 409.617C188.945 409.841 188.607 410.024 188.292 410.062C187.976 410.101 187.728 409.976 187.52 409.706C187.125 409.132 186.746 408.422 186.381 407.832C186.206 407.523 185.995 407.225 185.903 406.968C185.807 406.697 185.861 406.523 186.049 406.447C186.483 406.268 186.904 406.759 187.198 407.175C188.419 408.901 188.403 410.337 188.514 410.302Z" fill="#263238"/>
<path d="M163.939 411.143L151.736 437.588L132.046 428.492L144.667 395.762L163.939 411.143Z" fill="#FFBE9D"/>
<path d="M154.042 435.824L146.913 449.419C146.913 449.419 165.163 468.288 163.448 472.507L120.548 451.938L132.334 424.668L154.042 435.824Z" fill="#455A64"/>
<path d="M134.539 441.2C133.6 441.029 132.579 441.687 132.369 442.618C132.16 443.55 132.82 444.595 133.756 444.781C134.692 444.969 135.942 444.217 136.046 443.267C136.15 442.317 135.307 441.134 134.354 441.177" fill="#E0E0E0"/>
<g opacity="0.6">
<path d="M120.548 451.937L122.333 448.518L162.797 469.517C162.797 469.517 164.309 471.264 163.447 472.506L120.548 451.937Z" fill="white"/>
</g>
<path d="M147.713 449.534C147.606 449.741 146.512 449.333 145.159 449.513C143.801 449.657 142.834 450.31 142.681 450.134C142.508 450 143.42 448.899 145.063 448.71C146.704 448.506 147.851 449.364 147.713 449.534Z" fill="#263238"/>
<path d="M151.321 453.552C151.272 453.778 150.194 453.699 149.057 454.244C147.905 454.755 147.266 455.627 147.062 455.517C146.849 455.456 147.292 454.16 148.718 453.509C150.137 452.847 151.412 453.35 151.321 453.552Z" fill="#263238"/>
<path d="M151.294 460.163C151.083 460.116 151.293 458.931 152.38 458.041C153.463 457.144 154.667 457.165 154.672 457.382C154.708 457.611 153.776 457.922 152.894 458.665C151.996 459.387 151.512 460.242 151.294 460.163Z" fill="#263238"/>
<path d="M149.76 444.296C149.58 444.445 148.758 443.695 147.535 443.208C146.322 442.695 145.21 442.651 145.187 442.419C145.138 442.21 146.41 441.865 147.842 442.46C149.278 443.043 149.941 444.181 149.76 444.296Z" fill="#263238"/>
<path d="M158.062 432.294L190.226 351.799C190.226 351.799 189.503 338.065 186.974 333.728C184.444 329.391 107.823 304.091 107.823 304.091C107.823 304.091 88.306 299.393 75.295 304.091C62.284 308.789 52.525 325.053 54.333 334.089C56.14 343.124 63.766 349.762 63.766 349.762L120.112 351.437L150.823 362.641L130.141 421.914L158.062 432.294Z" fill="#263238"/>
<path d="M186.67 377.289L187.396 406.405L165.712 406.935L162.588 371.996L186.67 377.289Z" fill="#FFBE9D"/>
<path d="M188.686 403.803L188.29 419.149C188.29 419.149 212.994 428.024 213.319 432.565L165.745 433.047L164.282 403.376L188.686 403.803Z" fill="#455A64"/>
<path d="M173.559 417.237C172.641 417.498 172.015 418.54 172.238 419.467C172.461 420.396 173.515 421.041 174.438 420.796C175.361 420.551 176.15 419.323 175.825 418.426C175.5 417.529 174.22 416.839 173.384 417.298" fill="#E0E0E0"/>
<g opacity="0.6">
<path d="M165.745 433.047L165.837 429.191L211.416 430.171C211.416 430.171 213.543 431.07 213.319 432.565L165.745 433.047Z" fill="white"/>
</g>
<path d="M189.059 418.899C189.054 419.131 187.893 419.249 186.758 420.007C185.603 420.736 185.024 421.748 184.809 421.658C184.595 421.615 184.927 420.222 186.318 419.328C187.7 418.422 189.107 418.685 189.059 418.899Z" fill="#263238"/>
<path d="M194.07 420.913C194.125 421.138 193.123 421.543 192.344 422.533C191.536 423.501 191.348 424.565 191.116 424.557C190.898 424.595 190.723 423.237 191.716 422.024C192.697 420.802 194.063 420.691 194.07 420.913Z" fill="#263238"/>
<path d="M196.964 426.856C196.754 426.907 196.419 425.75 197.002 424.471C197.577 423.189 198.667 422.676 198.767 422.868C198.9 423.057 198.202 423.748 197.739 424.805C197.251 425.85 197.195 426.831 196.964 426.856Z" fill="#263238"/>
<path d="M188.583 413.296C188.488 413.509 187.418 413.199 186.106 413.302C184.792 413.378 183.774 413.828 183.651 413.631C183.515 413.464 184.504 412.594 186.051 412.495C187.598 412.384 188.696 413.113 188.583 413.296Z" fill="#263238"/>
<path d="M174.008 296.455C174.008 296.455 186.999 295.416 188.445 309.512C189.891 323.608 191.31 389.388 191.31 389.388L160.951 391.917L156.252 324.692L107.822 304.091C107.822 304.091 165.334 294.647 174.008 296.455Z" fill="#263238"/>
<path d="M120.459 277.433C120.459 277.433 128.344 299.539 126.842 302.002C125.34 304.466 105.065 314.604 105.065 314.604L54.331 334.089C54.331 334.089 49.121 325.8 49.121 313.068C49.121 300.336 66.768 277.432 66.768 277.432H120.459V277.433Z" fill="#263238"/>
<path d="M105.422 302.963C105.419 302.971 105.499 303.014 105.66 303.091C105.845 303.177 106.082 303.286 106.38 303.424C107.049 303.722 107.988 304.14 109.19 304.674C111.681 305.76 115.258 307.318 119.735 309.269C128.784 313.165 141.468 318.624 156.145 324.942L155.981 324.712C156.441 331.352 156.939 338.524 157.454 345.943C158.688 363.288 159.826 379.28 160.726 391.932L160.742 392.161L160.97 392.14C170.204 391.33 177.782 390.665 183.088 390.2C185.697 389.956 187.746 389.764 189.178 389.631C189.852 389.561 190.38 389.506 190.769 389.466C191.128 389.425 191.312 389.398 191.311 389.387C191.31 389.375 191.124 389.379 190.763 389.398C190.372 389.422 189.843 389.456 189.166 389.499C187.731 389.604 185.679 389.755 183.066 389.946C177.756 390.365 170.173 390.963 160.932 391.692L161.176 391.901C160.307 379.246 159.21 363.252 158.019 345.904C157.497 338.485 156.992 331.313 156.524 324.674L156.512 324.508L156.359 324.443C141.65 318.2 128.939 312.804 119.871 308.955C115.366 307.066 111.768 305.558 109.263 304.507C108.046 304.007 107.096 303.617 106.418 303.339C106.113 303.219 105.87 303.123 105.679 303.049C105.512 302.985 105.425 302.956 105.422 302.963Z" fill="#455A64"/>
<path d="M65.073 305.174C65.086 305.211 65.593 305.07 66.497 304.785C67.504 304.46 68.786 304.047 70.317 303.554C73.54 302.532 78.012 301.107 83.101 300.324C88.19 299.539 92.899 299.782 96.188 300.493C99.492 301.176 101.39 302.119 101.433 302.012C101.447 301.983 100.988 301.724 100.113 301.345C99.24 300.962 97.935 300.499 96.274 300.102C92.961 299.28 88.169 298.968 83.016 299.765C77.866 300.557 73.385 302.054 70.188 303.175C68.588 303.743 67.305 304.23 66.422 304.578C65.539 304.926 65.06 305.138 65.073 305.174Z" fill="#455A64"/>
<path d="M72.245 293.522C72.259 293.612 73.944 293.284 76.681 293.497C78.047 293.593 79.673 293.803 81.483 294.012C83.291 294.227 85.275 294.471 87.329 294.86C91.451 295.594 94.997 297.03 97.27 298.548C99.564 300.041 100.639 301.402 100.717 301.325C100.739 301.306 100.507 300.942 99.98 300.371C99.454 299.802 98.639 299.013 97.494 298.216C95.234 296.579 91.608 295.045 87.434 294.304C85.354 293.91 83.354 293.681 81.54 293.494C79.727 293.313 78.09 293.143 76.702 293.098C75.315 293.048 74.187 293.127 73.419 293.244C72.649 293.36 72.238 293.489 72.245 293.522Z" fill="#455A64"/>
<path d="M94.654 115.875C88.816 114.883 83.685 117.13 78.761 120.421C73.837 123.712 70.131 128.678 67.99 134.199C65.736 140.014 65.187 146.558 66.92 152.549C68.653 158.54 72.756 163.903 78.316 166.728C85.91 170.585 95.622 169.24 102.415 164.103C109.208 158.966 113.092 150.473 113.418 141.962C113.643 136.099 112.241 130.1 108.964 125.233C105.688 120.365 100.459 116.728 94.654 115.875Z" fill="#263238"/>
<path d="M78.052 135.727C78.906 133.494 78.575 131 78.912 128.633C79.656 123.421 83.856 119.241 88.713 117.209C93.232 115.318 98.75 115.731 104.193 117.491C107.924 118.697 111.436 120.801 113.923 123.831C117.224 127.854 118.387 133.537 116.932 138.533L90.264 134.649C87.767 136.715 85.211 138.816 82.182 139.967C81.293 140.305 80.337 140.559 79.399 140.41C78.46 140.261 77.547 139.623 77.324 138.699C77.083 137.689 77.681 136.697 78.052 135.727Z" fill="#263238"/>
<path d="M104.764 124.853L81.481 129.786C79.229 129.936 77.466 131.785 77.423 134.042L77.703 184.428C77.722 187.87 78.875 191.21 80.984 193.929L83.205 196.793C88.268 203.322 98.522 202.665 102.39 195.364C102.661 194.854 102.847 194.406 102.926 194.045C103.004 193.592 103.124 193.293 103.145 192.907L103.588 187.995C103.815 183.509 103.846 178.951 103.847 178.992C103.847 178.992 113.375 177.788 115.816 165.512C117.03 159.407 117.113 149.323 116.914 141.07C116.734 133.641 112.178 124.358 104.764 124.853Z" fill="#FFBE9D"/>
<path d="M113.372 150.525C113.369 151.363 112.657 152.051 111.783 152.064C110.91 152.077 110.202 151.41 110.205 150.572C110.208 149.735 110.92 149.046 111.793 149.032C112.668 149.02 113.375 149.688 113.372 150.525Z" fill="#263238"/>
<path d="M114.525 146.225C114.321 146.424 113.155 145.489 111.45 145.427C109.748 145.341 108.463 146.17 108.286 145.954C108.199 145.858 108.413 145.493 108.973 145.117C109.525 144.743 110.454 144.395 111.516 144.44C112.578 144.487 113.455 144.913 113.954 145.333C114.462 145.755 114.626 146.136 114.525 146.225Z" fill="#263238"/>
<path d="M98.092 150.143C98.09 150.981 97.378 151.669 96.503 151.682C95.63 151.695 94.923 151.028 94.926 150.19C94.928 149.353 95.641 148.663 96.514 148.65C97.389 148.637 98.096 149.305 98.092 150.143Z" fill="#263238"/>
<path d="M98.338 145.809C98.133 146.008 96.966 145.073 95.262 145.012C93.56 144.926 92.275 145.754 92.098 145.538C92.011 145.442 92.223 145.077 92.786 144.702C93.338 144.327 94.267 143.979 95.329 144.025C96.39 144.072 97.268 144.498 97.767 144.918C98.273 145.34 98.438 145.72 98.338 145.809Z" fill="#263238"/>
<path d="M103.453 158.774C103.449 158.677 104.516 158.535 106.241 158.382C106.678 158.354 107.094 158.283 107.179 157.989C107.294 157.678 107.13 157.202 106.939 156.687C106.57 155.618 106.185 154.497 105.78 153.322C104.176 148.534 103.032 144.603 103.226 144.54C103.419 144.477 104.877 148.307 106.481 153.096C106.866 154.276 107.234 155.402 107.585 156.478C107.731 156.979 107.992 157.551 107.745 158.195C107.615 158.516 107.287 158.739 107.004 158.804C106.722 158.878 106.477 158.873 106.261 158.878C104.528 158.905 103.456 158.872 103.453 158.774Z" fill="#263238"/>
<path d="M103.847 178.992C103.847 178.992 95.516 179.205 87.475 173.937C87.475 173.937 91.303 182.649 103.71 181.973L103.847 178.992Z" fill="#EB996E"/>
<path d="M102.572 162.855C101.99 162.021 100.934 161.534 99.863 161.607C99.12 161.658 98.359 161.985 97.886 162.571C97.413 163.155 97.285 164.008 97.672 164.597C98.107 165.262 99.062 165.449 99.884 165.249C100.707 165.049 101.427 164.541 102.113 164.033C102.302 163.892 102.497 163.746 102.619 163.548C102.742 163.351 102.776 163.087 102.641 162.914" fill="#EB996E"/>
<path d="M98.39 159.759C98.668 159.754 98.599 161.604 100.133 162.979C101.662 164.358 103.643 164.227 103.647 164.486C103.668 164.603 103.194 164.828 102.361 164.819C101.543 164.815 100.361 164.506 99.423 163.666C98.488 162.823 98.114 161.732 98.081 160.971C98.04 160.194 98.264 159.743 98.39 159.759Z" fill="#263238"/>
<path d="M98.243 140.749C98.057 141.206 96.363 140.92 94.354 141.083C92.341 141.206 90.706 141.729 90.456 141.303C90.345 141.1 90.644 140.675 91.313 140.251C91.977 139.828 93.025 139.442 94.23 139.355C95.436 139.27 96.528 139.503 97.245 139.828C97.968 140.153 98.323 140.532 98.243 140.749Z" fill="#263238"/>
<path d="M114.32 138.751C114.005 139.126 112.846 138.679 111.435 138.605C110.027 138.482 108.817 138.764 108.558 138.348C108.444 138.147 108.648 137.766 109.184 137.42C109.713 137.075 110.586 136.81 111.556 136.877C112.525 136.945 113.352 137.329 113.827 137.744C114.312 138.162 114.46 138.567 114.32 138.751Z" fill="#263238"/>
<path d="M73.784 132.131C76.198 125.041 86.737 115.381 94.196 116.051L105.982 123.443C105.179 127.493 101.97 130.97 97.997 132.094C95.875 132.694 93.331 132.82 92.041 134.609C90.724 136.435 91.418 139.147 90.188 141.034C88.483 143.648 83.97 143.432 82.674 146.271C82.108 147.512 82.361 149.012 81.772 150.242C80.988 151.881 76.76 153.894 75.039 153.311C73.319 152.728 73.372 149.779 72.837 148.223C71.922 145.564 72.348 144.203 72.696 142.735C73.52 139.258 72.632 135.514 73.784 132.131Z" fill="#263238"/>
<path d="M80.12 154.872C80.153 153.952 79.174 151.742 78.271 151.565C75.86 151.093 71.479 151.118 71.2 157.277C70.818 165.697 79.349 164.344 79.376 164.103C79.395 163.915 80.003 158.048 80.12 154.872Z" fill="#FFBE9D"/>
<path d="M76.948 160.796C76.912 160.768 76.797 160.892 76.544 160.994C76.297 161.094 75.877 161.151 75.446 160.967C74.571 160.6 73.886 159.154 73.914 157.634C73.928 156.866 74.121 156.144 74.42 155.552C74.705 154.948 75.123 154.535 75.574 154.477C76.024 154.394 76.329 154.676 76.421 154.918C76.524 155.159 76.462 155.325 76.506 155.34C76.528 155.363 76.693 155.208 76.641 154.857C76.614 154.688 76.524 154.485 76.334 154.314C76.139 154.141 75.846 154.043 75.532 154.063C74.881 154.079 74.269 154.649 73.941 155.299C73.577 155.95 73.341 156.761 73.326 157.623C73.303 159.322 74.099 160.949 75.301 161.356C75.886 161.537 76.389 161.381 76.653 161.194C76.923 161 76.977 160.813 76.948 160.796Z" fill="#EB996E"/>
<path d="M71.981 129.947C72.008 127.313 68.718 125.59 66.152 124.993C63.586 124.397 60.873 125.177 58.563 126.443C57.211 127.183 55.851 128.237 55.548 129.748C55.245 131.259 56.699 133.06 58.143 132.519C55.378 133.465 53.976 137.158 55.416 139.701C56.856 142.243 60.744 142.941 62.977 141.057C62.256 143.47 60.683 145.619 58.6 147.034C62.932 147.652 67.53 145.802 70.227 142.357C72.924 138.912 73.618 134.004 71.981 129.947Z" fill="#263238"/>
<path d="M66.136 143.339C66.076 143.348 65.851 142.393 65.822 140.812C65.788 139.236 66.022 137.032 66.792 134.736C67.569 132.441 68.717 130.545 69.697 129.311C70.677 128.07 71.434 127.446 71.476 127.489C71.631 127.598 68.807 130.396 67.32 134.914C65.77 139.409 66.326 143.346 66.136 143.339Z" fill="#727272"/>
<path d="M103.535 120.897C104.31 124.325 109.52 128.721 111.807 131.39C116.171 136.482 117.031 138.173 116.988 149.557C119.049 145.625 120.626 141.773 120.468 137.337C120.31 132.901 118.676 128.457 115.592 125.265C112.508 122.073 107.928 120.261 103.535 120.897Z" fill="#263238"/>
<path d="M139.246 214.581C139.246 214.581 130.171 199.45 127.652 196.39C125.291 193.52 122.249 191.827 120.218 190.939C119.088 190.445 117.9 190.106 116.685 189.895L103.634 187.005C103.634 187.005 103.611 195.913 94.277 196.464C84.944 197.015 77.085 184.013 77.085 184.013C77.085 184.013 62.006 186.345 58.398 188.201C54.79 190.056 49.12 192.414 46.001 208.037L43.811 223.321L69.811 225.724L72.299 264.358L85.193 273.337C85.193 273.337 120.939 282.631 123.223 283.245C125.507 283.859 126.264 225.724 126.264 225.724C126.264 225.724 135.446 219.787 139.246 214.581Z" fill="#8EBEFF"/>
<path d="M122.134 208.084C122.168 208.072 122.344 208.469 122.636 209.199C122.933 209.927 123.312 211 123.734 212.342C124.581 215.023 125.51 218.814 126.036 223.079C126.555 227.348 126.567 231.251 126.392 234.057C126.306 235.461 126.197 236.594 126.084 237.371C125.977 238.15 125.901 238.578 125.865 238.574C125.829 238.57 125.837 238.135 125.882 237.353C125.933 236.571 125.986 235.439 126.024 234.041C126.105 231.247 126.033 227.377 125.519 223.143C124.997 218.911 124.133 215.139 123.38 212.446C123.006 211.099 122.682 210.012 122.444 209.266C122.213 208.517 122.1 208.097 122.134 208.084Z" fill="#455A64"/>
<path d="M121.025 271.369L72.073 260.713L69.811 225.724L48.042 223.712C48.042 223.712 48.847 247.631 49.685 254.742C50.889 264.97 56.935 278.926 60.471 281.714C64.007 284.502 123.223 283.245 123.223 283.245L121.025 271.369Z" fill="#FFBE9D"/>
<path d="M148.812 277.71C148.468 278.393 147.752 278.838 146.99 278.772C146.839 278.759 146.679 278.729 146.516 278.676C145.433 278.329 145.535 276.124 145.535 276.124L140.347 275.277C140.347 275.277 133.601 279.627 131.201 282.51C128.801 285.394 122.678 283.058 122.678 283.058L120.555 272L130.104 263.365C130.104 263.365 129.518 263.88 130.176 262.264C130.835 260.648 133.835 261.259 133.835 261.259C134.302 260.46 136.262 260.174 136.262 260.174L144.637 261.139C146.363 261.338 147.906 262.308 148.834 263.777L152.376 269.383C152.376 269.383 154.247 273.42 153.946 274.359C153.492 275.775 151.994 275.46 151.994 275.46C151.994 275.46 151.582 278.114 150.885 278.206C150.188 278.3 148.812 277.71 148.812 277.71Z" fill="#FFBE9D"/>
<path d="M130.985 269.768C130.994 269.856 132.108 269.753 133.897 269.831C135.681 269.919 138.151 270.231 140.732 271.11C142.022 271.545 143.212 272.068 144.256 272.617C145.268 273.187 146.324 273.655 146.648 274.392C146.811 274.753 146.738 275.12 146.557 275.39C146.38 275.66 146.139 275.837 145.925 275.924C145.485 276.106 145.2 275.982 145.191 276.032C145.17 276.044 145.451 276.262 145.993 276.12C146.255 276.05 146.558 275.875 146.802 275.562C147.051 275.265 147.194 274.736 146.999 274.251C146.818 273.762 146.402 273.385 145.957 273.073C145.501 272.774 145.023 272.469 144.49 272.182C143.436 271.597 142.223 271.046 140.903 270.602C138.261 269.703 135.72 269.442 133.905 269.452C132.083 269.472 130.977 269.71 130.985 269.768Z" fill="#EB996E"/>
<path d="M130.399 275.109C130.409 275.268 133.817 275.126 138.004 275.371C142.194 275.601 145.564 276.129 145.591 275.973C145.603 275.904 144.774 275.683 143.41 275.444C142.047 275.204 140.146 274.96 138.034 274.839C135.923 274.721 134.007 274.747 132.625 274.831C131.244 274.914 130.395 275.04 130.399 275.109Z" fill="#EB996E"/>
<path d="M148.763 277.499C148.791 277.494 148.828 277.185 148.868 276.606C148.903 276.029 148.938 275.192 148.873 274.153C148.837 273.634 148.782 273.063 148.639 272.455C148.506 271.843 148.214 271.198 147.816 270.63C147.061 269.487 146.012 268.304 144.677 267.416C143.347 266.538 142.017 265.798 140.671 265.391C139.335 264.987 138.086 264.887 137.053 264.841C136.017 264.804 135.183 264.827 134.607 264.849C134.031 264.872 133.712 264.903 133.712 264.939C133.709 265.025 134.989 265.068 137.029 265.217C138.045 265.311 139.257 265.448 140.524 265.861C141.78 266.264 143.088 267.007 144.374 267.856C145.662 268.717 146.642 269.801 147.41 270.909C148.22 271.966 148.371 273.178 148.496 274.187C148.699 276.213 148.648 277.501 148.763 277.499Z" fill="#EB996E"/>
<path d="M136.665 262.304C136.665 262.384 137.918 262.416 139.919 262.647C141.847 262.943 144.93 263.084 146.687 265.741C148.589 268.157 150.207 270.438 150.915 272.31C151.665 274.169 151.599 275.456 151.708 275.446C151.736 275.447 151.786 275.132 151.757 274.558C151.733 273.986 151.61 273.152 151.269 272.179C150.626 270.203 149.018 267.836 147.104 265.407C146.616 264.797 146.088 264.218 145.476 263.761C144.866 263.295 144.157 263.024 143.505 262.835C142.184 262.462 140.969 262.353 139.955 262.271C137.922 262.135 136.664 262.237 136.665 262.304Z" fill="#EB996E"/>
<path d="M133.032 280.726C133.043 280.739 133.214 280.608 133.53 280.346C133.889 280.058 134.353 279.685 134.932 279.22C136.169 278.264 138.007 276.902 140.436 275.428L140.317 275.451C141.864 275.715 143.609 276.012 145.499 276.333L145.322 276.114C145.31 276.538 145.335 276.952 145.419 277.382C145.506 277.804 145.64 278.259 146.007 278.629C146.197 278.809 146.47 278.916 146.695 278.944C146.926 279.004 147.176 279.027 147.424 278.987C147.919 278.917 148.384 278.656 148.714 278.273C148.799 278.179 148.872 278.074 148.94 277.966L148.987 277.883L149.01 277.841L149.021 277.82L149.022 277.817C149.089 277.792 148.443 278.028 148.718 277.928L148.724 277.93L148.735 277.935L148.899 278.001C149.118 278.088 149.34 278.167 149.569 278.238C149.798 278.309 150.032 278.372 150.279 278.416C150.404 278.437 150.529 278.455 150.665 278.458C150.791 278.463 150.943 278.467 151.145 278.365C151.437 278.156 151.542 277.91 151.653 277.678C151.757 277.443 151.841 277.205 151.91 276.965C152.054 276.485 152.158 276.001 152.243 275.497L151.94 275.707C152.613 275.825 153.406 275.663 153.873 275.048C154.083 274.762 154.255 274.408 154.229 274.004C154.212 273.641 154.13 273.322 154.045 273C153.682 271.728 153.17 270.508 152.615 269.271L152.609 269.256L152.599 269.24C151.997 268.286 151.357 267.273 150.711 266.249C150.309 265.612 149.909 264.98 149.513 264.353C149.115 263.746 148.758 263.063 148.2 262.517C147.661 261.973 147.015 261.547 146.32 261.268C145.63 260.969 144.861 260.895 144.184 260.825C141.409 260.512 138.763 260.215 136.288 259.936L136.254 259.933L136.226 259.937C135.741 260.02 135.288 260.133 134.842 260.302C134.407 260.477 133.947 260.674 133.639 261.143L133.93 261.052C133.043 260.689 132.016 260.685 131.24 261.202C130.46 261.716 130.1 262.545 129.909 263.323L129.972 263.214C127.23 265.68 124.992 267.693 123.391 269.132C122.653 269.812 122.063 270.355 121.619 270.765C121.218 271.144 121.013 271.35 121.026 271.365C121.039 271.38 121.269 271.202 121.695 270.851C122.157 270.461 122.771 269.944 123.538 269.297C125.167 267.89 127.444 265.922 130.235 263.511L130.28 263.472L130.298 263.402C130.474 262.715 130.828 261.959 131.471 261.56C132.096 261.138 132.996 261.152 133.739 261.462L133.922 261.538L134.029 261.371C134.209 261.092 134.606 260.882 135.005 260.735C135.409 260.586 135.855 260.477 136.295 260.407L136.234 260.408C138.706 260.699 141.351 261.012 144.124 261.339C144.832 261.417 145.492 261.483 146.123 261.755C146.752 262.01 147.336 262.396 147.822 262.889C148.316 263.367 148.652 264.007 149.063 264.637C149.459 265.264 149.858 265.897 150.26 266.533C150.907 267.556 151.548 268.569 152.151 269.522L152.134 269.493C152.679 270.703 153.194 271.927 153.542 273.137C153.624 273.438 153.699 273.747 153.711 274.022C153.739 274.26 153.618 274.517 153.464 274.733C153.164 275.159 152.556 275.293 152.046 275.21L151.785 275.167L151.743 275.419C151.664 275.894 151.564 276.372 151.432 276.823C151.307 277.251 151.119 277.77 150.89 277.944C150.878 277.95 150.789 277.977 150.679 277.966C150.578 277.966 150.469 277.951 150.362 277.934C150.146 277.898 149.927 277.84 149.712 277.776C149.497 277.711 149.283 277.636 149.075 277.555L148.921 277.493L148.912 277.489L148.908 277.488C149.181 277.387 148.533 277.623 148.6 277.599L148.599 277.601L148.59 277.618L148.572 277.651L148.535 277.717C148.481 277.802 148.425 277.885 148.359 277.959C148.101 278.265 147.737 278.469 147.359 278.526C147.17 278.557 146.98 278.541 146.789 278.493C146.582 278.465 146.444 278.406 146.315 278.295C145.821 277.78 145.751 276.861 145.748 276.129L145.747 275.938L145.57 275.911C143.675 275.614 141.927 275.342 140.376 275.099L140.31 275.088L140.257 275.121C137.828 276.649 136.02 278.058 134.813 279.065C134.212 279.574 133.761 279.981 133.465 280.267C133.168 280.559 133.02 280.714 133.032 280.726Z" fill="#EB996E"/>
<path d="M212.325 245.544L147.846 246.067C145.754 246.067 143.756 247.072 143.443 249.14L136.396 296.135H103.185C102.116 296.135 101.248 297.001 101.248 298.071C101.248 299.141 102.115 300.008 103.185 300.008H135.816H142.01H209.259L216.509 250.408C216.896 247.849 214.914 245.544 212.325 245.544Z" fill="#E0E0E0"/>
<path d="M212.325 245.544C212.325 245.544 212.676 245.499 213.341 245.639C213.987 245.789 215.003 246.187 215.804 247.272C216.203 247.803 216.507 248.511 216.601 249.33C216.706 250.161 216.468 251.036 216.364 251.982C216.094 253.881 215.783 256.069 215.434 258.527C214.015 268.38 211.97 282.58 209.455 300.036L209.431 300.207H209.259C181.811 300.223 145.74 300.244 106.351 300.268C105.426 300.268 104.503 300.268 103.581 300.268C103.154 300.287 102.559 300.262 102.116 299.99C101.658 299.738 101.303 299.315 101.124 298.827C100.738 297.843 101.199 296.638 102.125 296.149C102.567 295.881 103.156 295.859 103.578 295.876H104.942C108.575 295.877 112.171 295.878 115.72 295.878C122.819 295.881 129.733 295.883 136.396 295.886L136.148 296.099C138.684 279.269 141.05 263.569 143.173 249.484C143.247 248.592 143.65 247.627 144.366 247.028C145.066 246.407 145.952 246.077 146.832 245.94C147.729 245.804 148.582 245.877 149.432 245.848C150.283 245.843 151.127 245.837 151.964 245.831C155.312 245.809 158.55 245.787 161.672 245.766C167.912 245.726 173.683 245.689 178.923 245.656C189.392 245.602 197.737 245.56 203.483 245.531C206.338 245.526 208.544 245.522 210.053 245.519C210.79 245.522 211.354 245.525 211.75 245.527C212.13 245.531 212.325 245.544 212.325 245.544C212.325 245.544 212.131 245.56 211.749 245.571C211.353 245.579 210.79 245.591 210.053 245.606C208.544 245.628 206.338 245.66 203.483 245.701C197.737 245.764 189.392 245.858 178.924 245.974C173.684 246.026 167.913 246.083 161.673 246.145C158.552 246.175 155.314 246.206 151.966 246.237C151.129 246.245 150.285 246.253 149.434 246.261C148.585 246.29 147.713 246.224 146.898 246.354C146.079 246.483 145.267 246.793 144.649 247.346C144.015 247.898 143.68 248.667 143.601 249.548C141.499 263.635 139.157 279.339 136.645 296.173L136.613 296.388H136.397C129.734 296.39 122.819 296.392 115.721 296.395C112.172 296.395 108.576 296.396 104.943 296.397H103.579C103.098 296.383 102.739 296.402 102.377 296.605C101.67 296.979 101.318 297.898 101.613 298.648C101.748 299.02 102.02 299.345 102.37 299.537C102.733 299.743 103.095 299.763 103.581 299.749C104.502 299.749 105.426 299.749 106.351 299.749C145.74 299.772 181.811 299.794 209.259 299.811L209.062 299.981C211.649 282.535 213.754 268.344 215.214 258.497C215.583 256.042 215.911 253.857 216.196 251.96C216.31 251.011 216.553 250.139 216.459 249.348C216.377 248.557 216.092 247.866 215.711 247.344C214.946 246.277 213.96 245.866 213.328 245.7C212.675 245.54 212.323 245.57 212.325 245.544Z" fill="#263238"/>
<path d="M177.351 276.215C179.581 276.215 181.388 274.408 181.388 272.178C181.388 269.948 179.581 268.141 177.351 268.141C175.121 268.141 173.314 269.948 173.314 272.178C173.314 274.408 175.121 276.215 177.351 276.215Z" fill="white"/>
<path d="M139.009 299.574C139.1 299.59 141.153 287.623 143.592 272.849C146.033 258.072 147.937 246.083 147.846 246.068C147.755 246.053 145.703 258.017 143.262 272.796C140.822 287.568 138.918 299.559 139.009 299.574Z" fill="#263238"/>
</svg>
