<svg width="25" height="24" viewBox="0 0 25 24" fill="none" xmlns="http://www.w3.org/2000/svg">
<path fill-rule="evenodd" clip-rule="evenodd" d="M0.775146 1.77055C0.835197 1.61982 0.880234 1.46081 0.95806 1.31981C1.24546 0.798931 1.69248 0.518256 2.28842 0.506606C2.9133 0.494476 3.53854 0.502763 4.16367 0.502763C9.10233 0.502643 14.041 0.502403 18.9795 0.503123C19.8037 0.503243 20.4008 0.935966 20.581 1.67026C20.6177 1.81991 20.6265 1.97952 20.6266 2.13457C20.6294 4.40075 20.629 6.66681 20.6282 8.93299C20.628 9.31611 20.4721 9.5162 20.1783 9.52136C19.9352 9.52569 19.7422 9.35851 19.7172 9.1153C19.7084 9.03015 19.7119 8.94356 19.7119 8.85757C19.7117 6.64615 19.7119 4.43462 19.7117 2.22321C19.7115 1.63699 19.5075 1.43054 18.9275 1.43042C17.3336 1.43006 15.7393 1.4303 14.1454 1.4303C14.0619 1.4303 13.9784 1.4303 13.869 1.4303C13.869 1.55112 13.869 1.64288 13.869 1.73464C13.869 3.32873 13.8449 4.92343 13.8796 6.51681C13.8961 7.27969 13.198 7.64191 12.6058 7.25302C12.0519 6.88948 11.4606 6.58346 10.8918 6.24189C10.753 6.15854 10.6507 6.16275 10.5133 6.24514C9.93763 6.59019 9.35562 6.92491 8.77361 7.25927C8.12099 7.6341 7.53153 7.29193 7.53093 6.53878C7.52985 4.92907 7.53057 3.31936 7.53057 1.70953C7.53057 1.62558 7.53057 1.54151 7.53057 1.44315C7.43293 1.43823 7.35727 1.43102 7.28148 1.43102C5.67177 1.43042 4.06194 1.43006 2.45223 1.43078C1.90638 1.43102 1.7022 1.63435 1.7022 2.17997C1.70172 7.68118 1.70172 13.1825 1.7022 18.6837C1.7022 19.2116 1.91959 19.439 2.43049 19.4393C5.8297 19.4405 9.22892 19.44 12.6281 19.4395C12.6891 19.4395 12.7501 19.4334 12.834 19.4291C12.8126 19.3583 12.7999 19.3001 12.7778 19.2456C11.2983 15.5736 13.4372 11.5609 17.31 10.7443C20.7152 10.0264 24.1502 12.3921 24.6937 15.8293C25.2466 19.3269 22.9293 22.5469 19.4265 23.0334C17.0081 23.3696 15.0297 22.4939 13.528 20.5664C13.4102 20.4151 13.2996 20.3502 13.1056 20.3506C9.61264 20.3567 6.11951 20.3396 2.62674 20.365C1.66233 20.3721 1.01223 19.9831 0.775146 19.0733C0.775146 13.3059 0.775146 7.53814 0.775146 1.77055ZM13.2226 16.8772C13.236 19.8188 15.6267 22.1941 18.5591 22.1795C21.5043 22.165 23.8714 19.7793 23.855 16.8421C23.8386 13.9076 21.4607 11.5418 18.5356 11.5496C15.5958 11.5574 13.2094 13.9506 13.2226 16.8772ZM8.47288 6.35971C8.56043 6.31179 8.62757 6.27696 8.69291 6.23901C9.25329 5.91438 9.81717 5.59563 10.3717 5.26091C10.5987 5.124 10.7995 5.11847 11.0267 5.25455C11.5824 5.58711 12.1451 5.90801 12.7053 6.23277C12.7758 6.2736 12.8493 6.30915 12.9397 6.35671C12.9397 4.701 12.9397 3.08012 12.9397 1.45084C11.4414 1.45084 9.9566 1.45084 8.473 1.45084C8.47288 3.09153 8.47288 4.71205 8.47288 6.35971Z" fill="white"/>
<path fill-rule="evenodd" clip-rule="evenodd" d="M5.04432 18.0944C4.57605 18.0944 4.10766 18.0972 3.63951 18.0934C3.32905 18.0909 3.12596 17.9076 3.12331 17.6396C3.12079 17.374 3.3204 17.1773 3.63194 17.175C4.5841 17.1682 5.53626 17.1679 6.48842 17.175C6.79984 17.1773 6.99788 17.376 6.99308 17.6433C6.9884 17.9092 6.7829 18.0912 6.47244 18.0936C5.99636 18.0969 5.5204 18.0944 5.04432 18.0944Z" fill="white"/>
<path fill-rule="evenodd" clip-rule="evenodd" d="M4.59273 16.1133C4.28083 16.1133 3.96905 16.1161 3.65715 16.1126C3.33696 16.1089 3.12306 15.9195 3.12378 15.6479C3.12462 15.3755 3.3372 15.1876 3.65907 15.186C4.29825 15.183 4.93766 15.1825 5.57684 15.1863C5.88706 15.1881 6.08979 15.3703 6.09579 15.6381C6.10216 15.9161 5.89583 16.1079 5.57504 16.1122C5.24764 16.1167 4.92025 16.1133 4.59273 16.1133Z" fill="white"/>
<path fill-rule="evenodd" clip-rule="evenodd" d="M17.8499 18.4346C18.807 17.1715 19.7414 15.9397 20.6744 14.7068C20.8014 14.5392 20.9185 14.3641 21.0471 14.1977C21.2282 13.9628 21.5547 13.9236 21.7731 14.1043C21.9813 14.2764 22.0095 14.5872 21.8367 14.8135C20.6736 16.3345 19.5106 17.8555 18.3475 19.3766C17.9706 19.8696 17.7032 19.8779 17.2991 19.3986C16.6822 18.6661 16.0695 17.9298 15.4555 17.1949C15.3093 17.0202 15.2249 16.8113 15.3662 16.6182C15.461 16.4886 15.6428 16.3398 15.7801 16.345C15.9515 16.3515 16.1577 16.471 16.2783 16.6051C16.8059 17.1904 17.3079 17.7988 17.8499 18.4346Z" fill="white"/>
</svg>
